<svg width="150" height="118" viewBox="0 0 150 118" fill="none" xmlns="http://www.w3.org/2000/svg">
<path d="M81.3 64.8001L54.8 112.5C53.5 114.5 55.1 117.3 57.5 117.1H86.8C87.3438 117.118 87.8823 116.988 88.3579 116.724C88.8335 116.46 89.2283 116.071 89.5 115.6L105 89.0001C105.302 88.5211 105.462 87.9664 105.462 87.4001C105.462 86.8338 105.302 86.2791 105 85.8001L92 64.5001C89.7 60.5001 83.5 60.6001 81.3 64.7001V64.8001ZM74.6 39.0001L29.6 115.5C29.1 116.5 28.1 117.1 27 117.1H4C1.6 117.3 -8.9407e-06 114.3 1.39999 112.4C5.29999 105.8 63.1 7.0001 64.5 4.4001C65.2703 3.12812 66.3437 2.06682 67.6243 1.31106C68.905 0.555303 70.3529 0.128637 71.8388 0.0692041C73.3246 0.00977087 74.802 0.319422 76.1389 0.970479C77.4758 1.62154 78.6306 2.59371 79.5 3.8001L87 14.5001C87.3376 14.9801 87.527 15.5485 87.5448 16.1351C87.5625 16.7217 87.4079 17.3005 87.1 17.8001L74.8 38.8001L74.6 39.0001ZM129.2 92.4001L117.4 112.4C115.9 114.4 117.7 117.4 120.1 117.1H143.6C148.3 117.2 151.4 111.7 148.9 107.7L139.9 92.4001C139.33 91.5125 138.545 90.7823 137.619 90.2766C136.693 89.771 135.655 89.506 134.6 89.506C133.545 89.506 132.507 89.771 131.581 90.2766C130.655 90.7823 129.87 91.5125 129.3 92.4001H129.2ZM96.8 37.8001L91.6 47.0001C91.1 48.0001 91.1 49.2001 91.7 50.1001L104.7 71.5001C105.247 72.4336 106.028 73.2078 106.967 73.7458C107.905 74.2838 108.968 74.5668 110.05 74.5668C111.132 74.5668 112.195 74.2838 113.133 73.7458C114.072 73.2078 114.853 72.4336 115.4 71.5001L120.5 62.7001C121.1 61.7001 121.1 60.6001 120.5 59.6001L107.5 37.6001C105.2 33.5001 98.9 33.5001 96.7 37.7001L96.8 37.8001Z" fill="#263CD9"/>
</svg>
