<svg width="24" height="21" viewBox="0 0 24 21" fill="none" xmlns="http://www.w3.org/2000/svg">
<path d="M7.66598 20.4049C7.46467 20.4051 7.2653 20.3656 7.07933 20.2885C6.89336 20.2115 6.72446 20.0984 6.58234 19.9559L2.24726 15.6208C1.53508 14.9093 0.970053 14.0646 0.584461 13.1347C0.198868 12.2048 0.00026602 11.2081 2.67059e-07 10.2015C-0.000265486 9.19485 0.197811 8.19802 0.582912 7.26796C0.968013 6.33789 1.53259 5.49282 2.24439 4.78102C2.9562 4.06921 3.80127 3.50464 4.73133 3.11953C5.6614 2.73443 6.65823 2.53636 7.66486 2.53662C8.6715 2.53689 9.66823 2.73549 10.5981 3.12108C11.5279 3.50667 12.3727 4.0717 13.0842 4.78388L17.4192 9.11841C17.7066 9.40581 17.8681 9.7956 17.8681 10.202C17.8681 10.6085 17.7066 10.9983 17.4192 11.2857C17.1318 11.5731 16.742 11.7345 16.3356 11.7345C15.9292 11.7345 15.5394 11.5731 15.252 11.2857L10.9169 6.95115C10.0546 6.08888 8.88513 5.60447 7.6657 5.60447C6.44628 5.60447 5.27679 6.08888 4.41453 6.95115C3.55226 7.81341 3.06785 8.9829 3.06785 10.2023C3.06785 11.4218 3.55226 12.5912 4.41453 13.4535L8.74961 17.7886C8.96392 18.0029 9.10986 18.276 9.16898 18.5733C9.22811 18.8706 9.19776 19.1787 9.08177 19.4587C8.96579 19.7388 8.76938 19.9781 8.51737 20.1465C8.26536 20.3149 7.96908 20.4048 7.66598 20.4049Z" fill="white"/>
<path d="M16.3357 17.8621C15.3294 17.8639 14.3326 17.6667 13.4027 17.2821C12.4728 16.8975 11.628 16.3329 10.9169 15.6208L6.58241 11.2857C6.29571 10.9982 6.13484 10.6086 6.13513 10.2026C6.13543 9.79651 6.29686 9.40717 6.58399 9.12005C6.87111 8.83292 7.26045 8.67149 7.66651 8.67119C8.07257 8.67089 8.46214 8.83176 8.74968 9.11847L13.0842 13.4536C13.9467 14.3147 15.1159 14.7982 16.3347 14.7977C17.5535 14.7973 18.7223 14.3129 19.5841 13.4511C20.446 12.5893 20.9304 11.4206 20.931 10.2018C20.9316 8.98297 20.4482 7.8138 19.5871 6.95121L15.252 2.61612C15.1097 2.47381 14.9968 2.30487 14.9198 2.11894C14.8428 1.93301 14.8032 1.73374 14.8032 1.53249C14.8032 1.33124 14.8428 1.13196 14.9198 0.946029C14.9968 0.760099 15.1097 0.59116 15.252 0.448855C15.3943 0.306551 15.5633 0.193668 15.7492 0.116653C15.9351 0.0396384 16.1344 0 16.3357 0C16.5369 0 16.7362 0.0396384 16.9221 0.116653C17.1081 0.193668 17.277 0.306551 17.4193 0.448855L21.7544 4.78394C22.8265 5.8552 23.5568 7.22046 23.8527 8.7069C24.1486 10.1934 23.9969 11.7342 23.4167 13.1344C22.8366 14.5345 21.8541 15.7312 20.5936 16.5727C19.3331 17.4143 17.8513 17.863 16.3357 17.8621Z" fill="white"/>
</svg>
