<?xml version="1.0" encoding="UTF-8"?>
<svg id="Layer_1" xmlns="http://www.w3.org/2000/svg" xmlns:xlink="http://www.w3.org/1999/xlink" version="1.1" viewBox="0 0 80 80">
  <!-- Generator: Adobe Illustrator 29.2.1, SVG Export Plug-In . SVG Version: 2.1.0 Build 116)  -->
  <defs>
    <style>
      .st0 {
        fill: url(#linear-gradient1);
      }

      .st1 {
        fill: url(#radial-gradient);
      }

      .st2 {
        fill: url(#linear-gradient);
      }

      .st3 {
        fill: url(#radial-gradient1);
      }

      .st4 {
        fill: url(#radial-gradient6);
      }

      .st5 {
        fill: url(#radial-gradient9);
      }

      .st6 {
        fill: url(#radial-gradient8);
      }

      .st7 {
        fill: url(#radial-gradient3);
      }

      .st8 {
        fill: url(#radial-gradient2);
      }

      .st9 {
        fill: url(#radial-gradient5);
      }

      .st10 {
        fill: url(#radial-gradient4);
      }

      .st11 {
        fill: url(#radial-gradient7);
      }
    </style>
    <linearGradient id="linear-gradient" x1="74.5" y1="59.2" x2="7.4" y2="16.9" gradientTransform="translate(0 79.9) scale(1 -1)" gradientUnits="userSpaceOnUse">
      <stop offset="0" stop-color="#9658f9"/>
      <stop offset=".1" stop-color="#9356f4"/>
      <stop offset=".3" stop-color="#8951e5"/>
      <stop offset=".5" stop-color="#7a49cd"/>
      <stop offset=".6" stop-color="#643dab"/>
      <stop offset=".8" stop-color="#492e81"/>
      <stop offset="1" stop-color="#291d4f"/>
    </linearGradient>
    <radialGradient id="radial-gradient" cx="-662.7" cy="477.5" fx="-662.7" fy="477.5" r="1.3" gradientTransform="translate(-43702.4 25169.9) rotate(112.8) scale(60.6 -64)" gradientUnits="userSpaceOnUse">
      <stop offset="0" stop-color="#9658f9"/>
      <stop offset=".7" stop-color="#291d4f"/>
    </radialGradient>
    <radialGradient id="radial-gradient1" cx="46.3" cy="30.1" fx="46.3" fy="30.1" r="80.7" gradientTransform="translate(0 79.9) scale(1 -1)" gradientUnits="userSpaceOnUse">
      <stop offset=".2" stop-color="#ab71ff" stop-opacity="0"/>
      <stop offset=".4" stop-color="#9462e0" stop-opacity=".2"/>
      <stop offset=".7" stop-color="#573b8d" stop-opacity=".6"/>
      <stop offset=".9" stop-color="#291d4f"/>
    </radialGradient>
    <radialGradient id="radial-gradient2" cx="56" cy="81.4" fx="56" fy="81.4" r="58.4" gradientTransform="translate(0 79.9) scale(1 -1)" gradientUnits="userSpaceOnUse">
      <stop offset=".2" stop-color="#9658f9"/>
      <stop offset=".3" stop-color="#7e48ea"/>
      <stop offset=".4" stop-color="#7542e5"/>
      <stop offset=".4" stop-color="#6a3dd0"/>
      <stop offset=".5" stop-color="#5332a2"/>
      <stop offset=".6" stop-color="#41297e"/>
      <stop offset=".6" stop-color="#342264"/>
      <stop offset=".7" stop-color="#2c1e54"/>
      <stop offset=".7" stop-color="#291d4f"/>
    </radialGradient>
    <radialGradient id="radial-gradient3" cx="28.6" cy="20.6" fx="28.6" fy="20.6" r="38.5" gradientTransform="translate(0 79.9) scale(1 -1)" gradientUnits="userSpaceOnUse">
      <stop offset="0" stop-color="#9358fc"/>
      <stop offset=".1" stop-color="#9857f8"/>
      <stop offset=".2" stop-color="#a755eb"/>
      <stop offset=".3" stop-color="#bf52d7"/>
      <stop offset=".4" stop-color="#e14eba"/>
      <stop offset=".4" stop-color="#ef4caf"/>
      <stop offset=".7" stop-color="#ff7583"/>
      <stop offset="1" stop-color="#ffb753"/>
    </radialGradient>
    <radialGradient id="radial-gradient4" cx="-648.9" cy="391.9" fx="-648.9" fy="391.9" r="1.3" gradientTransform="translate(11357.6 4481.2) rotate(-13.9) scale(15.3 -18)" gradientUnits="userSpaceOnUse">
      <stop offset=".2" stop-color="#ffb653" stop-opacity=".3"/>
      <stop offset=".3" stop-color="#ff807a" stop-opacity=".5"/>
      <stop offset=".4" stop-color="#ff7781" stop-opacity=".5"/>
      <stop offset=".6" stop-color="#ff5c94" stop-opacity=".4"/>
      <stop offset=".6" stop-color="#ff4aa2" stop-opacity=".4"/>
      <stop offset=".9" stop-color="#9658f9" stop-opacity=".3"/>
    </radialGradient>
    <radialGradient id="radial-gradient5" cx="45.3" cy="66.4" fx="45.3" fy="66.4" r="27.7" gradientTransform="translate(0 79.9) scale(1 -1)" gradientUnits="userSpaceOnUse">
      <stop offset="0" stop-color="#9658f9"/>
      <stop offset=".6" stop-color="#7542e5"/>
      <stop offset=".7" stop-color="#6339c2"/>
      <stop offset=".9" stop-color="#37246b"/>
      <stop offset="1" stop-color="#291d4f"/>
    </radialGradient>
    <radialGradient id="radial-gradient6" cx="-664.3" cy="474.6" fx="-664.3" fy="474.6" r="1.3" gradientTransform="translate(-43417.6 48013.2) rotate(102.9) scale(85.1 -66.8)" gradientUnits="userSpaceOnUse">
      <stop offset=".2" stop-color="#ab71ff"/>
      <stop offset=".3" stop-color="#a46bfc"/>
      <stop offset=".4" stop-color="#9059f2"/>
      <stop offset=".5" stop-color="#7542e5"/>
      <stop offset=".6" stop-color="#6239bf"/>
      <stop offset=".9" stop-color="#291d4f"/>
    </radialGradient>
    <radialGradient id="radial-gradient7" cx="-657" cy="474.2" fx="-657" fy="474.2" r="1.3" gradientTransform="translate(-15573.7 44488.4) rotate(84) scale(64.8 -42.6)" gradientUnits="userSpaceOnUse">
      <stop offset="0" stop-color="#9658f9"/>
      <stop offset=".1" stop-color="#8c51f3"/>
      <stop offset=".3" stop-color="#7542e5"/>
      <stop offset=".3" stop-color="#6e3ed6"/>
      <stop offset=".4" stop-color="#5533a6"/>
      <stop offset=".5" stop-color="#422980"/>
      <stop offset=".6" stop-color="#342365"/>
      <stop offset=".7" stop-color="#2c1e55"/>
      <stop offset=".7" stop-color="#291d4f"/>
    </radialGradient>
    <radialGradient id="radial-gradient8" cx="44.6" cy="56.2" fx="44.6" fy="56.2" r="73.7" gradientTransform="translate(0 79.9) scale(1 -1)" gradientUnits="userSpaceOnUse">
      <stop offset="0" stop-color="#9658f9"/>
      <stop offset=".1" stop-color="#9155f6"/>
      <stop offset=".2" stop-color="#834cee"/>
      <stop offset=".3" stop-color="#7542e5"/>
      <stop offset=".8" stop-color="#291d4f"/>
    </radialGradient>
    <radialGradient id="radial-gradient9" cx="64.1" cy="51.8" fx="64.1" fy="51.8" r="80.5" gradientTransform="translate(0 79.9) scale(1 -1)" gradientUnits="userSpaceOnUse">
      <stop offset=".2" stop-color="#9658f9"/>
      <stop offset=".5" stop-color="#834bed"/>
      <stop offset=".7" stop-color="#7542e5"/>
      <stop offset=".7" stop-color="#6b3dd2"/>
      <stop offset=".8" stop-color="#52319f"/>
      <stop offset=".9" stop-color="#291d4f"/>
    </radialGradient>
    <linearGradient id="linear-gradient1" x1="69.7" y1="67.7" x2="14.9" y2="12.9" gradientTransform="translate(0 79.9) scale(1 -1)" gradientUnits="userSpaceOnUse">
      <stop offset="0" stop-color="#9059ff" stop-opacity=".9"/>
      <stop offset=".6" stop-color="#291d4f" stop-opacity="0"/>
    </linearGradient>
  </defs>
  <path class="st2" d="M75.6,27c-1.7-4.1-5.1-8.4-7.8-9.8,2.2,4.3,3.4,8.6,3.9,11.8h0c-4.4-10.9-11.8-15.3-17.9-24.9-.3-.5-.6-1-.9-1.5-.2-.3-.3-.5-.4-.8-.2-.5-.5-1-.6-1.5,0,0,0,0,0,0,0,0,0,0,0,0,0,0,0,0,0,0h0s0,0,0,0h0c-9.7,5.7-13,16.2-13.3,21.5-3.9.3-7.6,1.7-10.7,4.1-.3-.3-.7-.5-1-.8-.9-3.1-.9-6.4-.1-9.5-4,1.8-7.1,4.7-9.3,7.2h0c-1.5-2-1.4-8.4-1.3-9.7,0,0-1.1.6-1.3.7-1.4,1-2.6,2.1-3.8,3.2-1.3,1.3-2.5,2.8-3.6,4.3-2.5,3.5-4.3,7.5-5.2,11.7,0,0,0,.2,0,.3,0,.3-.3,2-.4,2.4h0c-.3,1.8-.6,3.6-.6,5.4v.2c0,21.4,17.4,38.8,38.8,38.8s35.1-13.9,38.2-32.2c0-.5.1-1,.2-1.5.7-6.7-.1-13.7-2.5-19.5ZM30.9,57.3c.2,0,.4.2.5.3h0c-.2,0-.4-.2-.6-.3ZM71.7,29h0s0,0,0,0Z"/>
  <path class="st1" d="M75.6,27c-1.7-4.1-5.1-8.4-7.8-9.8,2.2,4.3,3.4,8.6,3.9,11.8h0c3.7,10,1.7,20.1-1.2,26.2-4.4,9.5-15.2,19.3-32,18.8-18.2-.5-34.2-14-37.2-31.7-.6-2.8,0-4.2.3-6.5-.3,1.7-.5,2.2-.6,5.3v.2c0,21.4,17.3,38.8,38.8,38.8s35.1-13.9,38.2-32.2c0-.5.1-1,.2-1.5.8-6.7,0-13.7-2.5-19.5Z"/>
  <path class="st3" d="M75.6,27c-1.7-4.1-5.1-8.4-7.8-9.8,2.2,4.3,3.4,8.6,3.9,11.8h0c3.7,10,1.7,20.1-1.2,26.2-4.4,9.5-15.2,19.3-32,18.8-18.2-.5-34.2-14-37.2-31.7-.6-2.8,0-4.2.3-6.5-.3,1.7-.5,2.2-.6,5.3v.2c0,21.4,17.3,38.8,38.8,38.8s35.1-13.9,38.2-32.2c0-.5.1-1,.2-1.5.8-6.7,0-13.7-2.5-19.5Z"/>
  <path class="st8" d="M56.8,31.5l.2.2c-1-1.7-2.2-3.3-3.6-4.7C41.3,15,50.2.9,51.7.2h0c-9.7,5.7-13,16.2-13.3,21.5.5,0,.9,0,1.4,0,7.3,0,13.6,4,17,9.9Z"/>
  <path class="st7" d="M39.9,34c0,1-3.5,4.3-4.7,4.3-11,0-12.8,6.7-12.8,6.7.5,5.6,4.4,10.2,9.1,12.7.2.1.4.2.7.3.4.2.8.3,1.1.5,1.6.6,3.3.9,5,1,19.3.9,23.1-23.1,9.1-30.1,3.6-.6,7.3.8,9.4,2.3-3.4-5.9-9.7-9.9-17-9.9s-.9,0-1.4,0c-3.9.3-7.6,1.7-10.7,4.1.6.5,1.3,1.2,2.7,2.5,2.6,2.6,9.4,5.3,9.4,5.6Z"/>
  <path class="st10" d="M39.9,34c0,1-3.5,4.3-4.7,4.3-11,0-12.8,6.7-12.8,6.7.5,5.6,4.4,10.2,9.1,12.7.2.1.4.2.7.3.4.2.8.3,1.1.5,1.6.6,3.3.9,5,1,19.3.9,23.1-23.1,9.1-30.1,3.6-.6,7.3.8,9.4,2.3-3.4-5.9-9.7-9.9-17-9.9s-.9,0-1.4,0c-3.9.3-7.6,1.7-10.7,4.1.6.5,1.3,1.2,2.7,2.5,2.6,2.6,9.4,5.3,9.4,5.6Z"/>
  <path class="st9" d="M25.9,24.5c.3.2.6.4.8.5-.9-3.1-.9-6.4-.1-9.5-4,1.8-7.1,4.7-9.3,7.2.2,0,5.8-.1,8.6,1.7Z"/>
  <path class="st4" d="M1.3,42.3c3,17.7,19,31.2,37.2,31.7,16.8.5,27.6-9.3,32-18.8,2.9-6.2,4.9-16.2,1.2-26.2h0c0,0,0,0,0,0,1.4,9-3.2,17.7-10.3,23.5h0c-13.9,11.4-27.2,6.9-29.9,5-.2,0-.4-.2-.6-.3-8.1-3.9-11.5-11.3-10.7-17.6-6.9,0-9.2-5.8-9.2-5.8,0,0,6.1-4.4,14.2-.6,7.5,3.5,14.6.6,14.6.6,0-.3-6.8-3-9.4-5.6-1.4-1.4-2.1-2-2.7-2.5-.3-.3-.7-.5-1-.8-.2-.2-.5-.3-.8-.5-2.8-1.8-8.5-1.7-8.6-1.7h0c-1.5-2-1.4-8.4-1.3-9.7,0,0-1.1.6-1.3.7-1.4,1-2.6,2.1-3.8,3.2-1.3,1.3-2.5,2.8-3.6,4.3-2.5,3.5-4.3,7.5-5.2,11.7,0,.1-1.4,6.1-.7,9.2Z"/>
  <path class="st11" d="M53.4,27c1.4,1.4,2.6,3,3.6,4.7.2.2.4.3.6.5,8.8,8.1,4.2,19.5,3.8,20.4,7.1-5.9,11.7-14.6,10.3-23.5-4.4-10.9-11.8-15.3-17.9-24.9-.3-.5-.6-1-.9-1.5-.2-.3-.3-.5-.4-.8-.2-.5-.5-1-.6-1.5,0,0,0,0,0,0,0,0,0,0,0,0,0,0,0,0,0,0h0s0,0,0,0c-1.5.7-10.4,14.8,1.7,26.8Z"/>
  <path class="st6" d="M57.6,32.2c-.2-.2-.4-.3-.6-.5l-.2-.2c-2.1-1.5-5.8-2.9-9.4-2.3,13.9,7,10.2,31-9.1,30.1-1.7,0-3.4-.4-5-1-.4-.1-.8-.3-1.1-.5-.2,0-.4-.2-.6-.3h0c2.7,1.9,16,6.4,29.9-5h0c.3-.9,4.9-12.3-3.8-20.4Z"/>
  <path class="st5" d="M22.3,44.9s1.8-6.7,12.8-6.7,4.6-3.3,4.7-4.3c0,0-7,3-14.5-.6-8.1-3.8-14.2.6-14.2.6,0,0,2.3,5.8,9.2,5.8-.7,6.3,2.6,13.7,10.7,17.6.2,0,.4.2.5.3-4.7-2.5-8.6-7.1-9.1-12.7Z"/>
  <path class="st0" d="M75.6,27c-1.7-4.1-5.1-8.4-7.8-9.8,2.2,4.3,3.4,8.6,3.9,11.8h0c-4.4-10.9-11.8-15.3-17.9-24.9-.3-.5-.6-1-.9-1.5-.2-.3-.3-.5-.4-.8-.2-.5-.5-1-.6-1.5,0,0,0,0,0,0,0,0,0,0,0,0,0,0,0,0,0,0h0s0,0,0,0h0c-9.7,5.7-13,16.2-13.3,21.5.5,0,.9,0,1.4,0,7.3,0,13.6,4,17,9.9-2.1-1.5-5.8-2.9-9.3-2.3,13.9,7,10.2,31-9.1,30.1-1.7,0-3.4-.4-5-1-.4-.1-.8-.3-1.1-.5-.2,0-.4-.2-.6-.3h0c-.2,0-.4-.2-.6-.3.2,0,.4.2.5.3-4.7-2.5-8.6-7.1-9.1-12.7,0,0,1.8-6.7,12.8-6.7s4.6-3.3,4.7-4.3c0-.3-6.8-3-9.4-5.6-1.4-1.4-2.1-2-2.7-2.5-.3-.3-.7-.5-1-.8-.9-3.1-.9-6.4-.1-9.5-4,1.8-7.1,4.7-9.3,7.2-1.5-2-1.4-8.4-1.3-9.7,0,0-1.1.6-1.3.7-1.4,1-2.6,2.1-3.8,3.2-1.3,1.3-2.5,2.8-3.6,4.3-2.5,3.5-4.3,7.5-5.2,11.7,0,0,0,.2,0,.3,0,.3-.4,2.1-.5,2.4-.3,1.8-.5,3.6-.6,5.4v.2c0,21.4,17.4,38.8,38.8,38.8s35.1-13.9,38.2-32.2c0-.5.1-1,.2-1.5.8-6.7-.1-13.7-2.5-19.5ZM71.7,29h0s0,0,0,0Z"/>
</svg>