<svg width="133" height="31" viewBox="0 0 133 31" fill="none" xmlns="http://www.w3.org/2000/svg">
<mask id="path-1-outside-1_22_31" maskUnits="userSpaceOnUse" x="0" y="0" width="133" height="32" fill="black">
<rect fill="white" width="133" height="31"/>
<path d="M10.56 23.736C10.56 23.8 10.5707 23.864 10.592 23.928C10.6133 23.992 10.6453 24.0453 10.688 24.088C10.7307 24.1307 10.7733 24.1627 10.816 24.184C10.88 24.2053 10.944 24.216 11.008 24.216H15.68C15.808 24.216 15.9147 24.1733 16 24.088C16.1067 23.9813 16.16 23.864 16.16 23.736V11.448C16.16 11.384 16.1387 11.3093 16.096 11.224L15.648 10.456C15.5627 10.2853 15.424 10.2 15.232 10.2H8.224C8.096 10.2 7.97867 10.2533 7.872 10.36C7.78667 10.4453 7.744 10.552 7.744 10.68V12.568C7.744 12.6747 7.78667 12.7813 7.872 12.888C7.97867 12.9733 8.096 13.016 8.224 13.016H10.112C10.24 13.016 10.3467 13.0587 10.432 13.144C10.5173 13.2293 10.56 13.336 10.56 13.464V23.736ZM4.96 5.752C4.96 5.432 5.06667 5.16533 5.28 4.952C5.51467 4.71733 5.792 4.6 6.112 4.6H18.24C18.7093 4.6 19.0507 4.81333 19.264 5.24L21.632 9.976C21.7173 10.1253 21.76 10.296 21.76 10.488V23.736C21.76 24.056 21.6427 24.3227 21.408 24.536L19.296 26.68C19.0613 26.8933 18.7947 27 18.496 27H6.112C5.792 27 5.51467 26.8933 5.28 26.68C5.06667 26.4453 4.96 26.168 4.96 25.848V5.752ZM23.5225 5.752C23.5225 5.432 23.6292 5.16533 23.8425 4.952C24.0772 4.71733 24.3545 4.6 24.6745 4.6H25.6025C26.0718 4.6 26.4132 4.81333 26.6265 5.24L28.9945 9.976C29.0798 10.1253 29.1225 10.296 29.1225 10.488V25.848C29.1225 26.168 29.0052 26.4453 28.7705 26.68C28.5572 26.8933 28.2905 27 27.9705 27H24.6745C24.3545 27 24.0772 26.8933 23.8425 26.68C23.6292 26.4453 23.5225 26.168 23.5225 25.848V5.752ZM42.0975 19.064C42.0975 18.9787 42.0762 18.904 42.0335 18.84C41.9908 18.776 41.9375 18.7227 41.8735 18.68C41.8095 18.6373 41.7348 18.616 41.6495 18.616H41.1695C41.0415 18.616 40.9242 18.6587 40.8175 18.744C40.7322 18.8293 40.6895 18.936 40.6895 19.064V20.952C40.6895 21.0373 40.6682 21.112 40.6255 21.176C40.5828 21.24 40.5295 21.2933 40.4655 21.336C40.4015 21.3787 40.3268 21.4 40.2415 21.4H38.3535C38.2255 21.4 38.1188 21.3573 38.0335 21.272C37.9482 21.1867 37.9055 21.08 37.9055 20.952V16.952C37.9055 16.632 38.0122 16.3653 38.2255 16.152C38.4602 15.9173 38.7375 15.8 39.0575 15.8H46.5455C46.8655 15.8 47.1322 15.9173 47.3455 16.152C47.5802 16.3653 47.6975 16.632 47.6975 16.952V23.736C47.6975 24.056 47.5802 24.3227 47.3455 24.536L45.2335 26.68C44.9988 26.8933 44.7322 27 44.4335 27H32.0495C31.7295 27 31.4522 26.8933 31.2175 26.68C31.0042 26.4453 30.8975 26.168 30.8975 25.848V5.752C30.8975 5.432 31.0042 5.16533 31.2175 4.952C31.4522 4.71733 31.7295 4.6 32.0495 4.6H44.1775C44.6468 4.6 44.9882 4.81333 45.2015 5.24L47.5695 9.976C47.6548 10.1253 47.6975 10.296 47.6975 10.488V13.272C47.6975 13.592 47.5802 13.8693 47.3455 14.104C47.1322 14.3173 46.8655 14.424 46.5455 14.424H43.2495C42.9295 14.424 42.6522 14.3173 42.4175 14.104C42.2042 13.8693 42.0975 13.592 42.0975 13.272V11.448C42.0975 11.384 42.0762 11.3093 42.0335 11.224L41.5855 10.456C41.5002 10.2853 41.3615 10.2 41.1695 10.2H34.1615C34.0335 10.2 33.9268 10.2533 33.8415 10.36C33.7562 10.4453 33.7135 10.552 33.7135 10.68V12.568C33.7135 12.6747 33.7562 12.7813 33.8415 12.888C33.9268 12.9733 34.0335 13.016 34.1615 13.016H36.0495C36.1775 13.016 36.2842 13.0587 36.3695 13.144C36.4548 13.2293 36.4975 13.336 36.4975 13.464V23.736C36.4975 23.864 36.5402 23.9813 36.6255 24.088C36.7108 24.1733 36.8175 24.216 36.9455 24.216H41.6495C41.7775 24.216 41.8842 24.1733 41.9695 24.088C42.0548 23.9813 42.0975 23.864 42.0975 23.736V19.064ZM49.3038 5.752C49.3038 5.432 49.4104 5.16533 49.6238 4.952C49.8584 4.71733 50.1358 4.6 50.4557 4.6H51.3838C51.8531 4.6 52.1944 4.81333 52.4078 5.24L54.7758 9.976C54.8611 10.1253 54.9038 10.296 54.9038 10.488V25.848C54.9038 26.168 54.7864 26.4453 54.5518 26.68C54.3384 26.8933 54.0718 27 53.7518 27H50.4557C50.1358 27 49.8584 26.8933 49.6238 26.68C49.4104 26.4453 49.3038 26.168 49.3038 25.848V5.752ZM56.6788 5.752C56.6788 5.45333 56.7854 5.19733 56.9988 4.984C57.2334 4.74933 57.5108 4.632 57.8307 4.632H69.9588C70.4281 4.632 70.7694 4.83467 70.9828 5.24L73.3507 9.976C73.4361 10.1467 73.4788 10.3173 73.4788 10.488V13.272C73.4788 13.4853 73.4254 13.6773 73.3188 13.848C73.2121 14.0187 73.0734 14.1573 72.9028 14.264C72.7321 14.3707 72.5401 14.424 72.3268 14.424H69.0308C68.7108 14.424 68.4334 14.3173 68.1988 14.104C67.9854 13.8693 67.8788 13.592 67.8788 13.272V11.448C67.8788 11.384 67.8574 11.3093 67.8148 11.224L67.3668 10.456C67.2814 10.3067 67.1428 10.232 66.9508 10.232H59.9427C59.8148 10.232 59.7081 10.2747 59.6228 10.36C59.5374 10.4453 59.4948 10.552 59.4948 10.68V12.568C59.4948 12.696 59.5374 12.8027 59.6228 12.888C59.7081 12.9733 59.8148 13.016 59.9427 13.016H61.8308C61.9588 13.016 62.0654 13.0587 62.1508 13.144C62.2361 13.2293 62.2788 13.336 62.2788 13.464V13.944C62.2788 14.072 62.3214 14.1893 62.4068 14.296C62.4921 14.3813 62.5988 14.424 62.7268 14.424H66.0228C66.1508 14.424 66.2574 14.4667 66.3428 14.552C66.4281 14.6373 66.4708 14.744 66.4708 14.872V15.352C66.4708 15.48 66.5134 15.5867 66.5988 15.672C66.7054 15.7573 66.8228 15.8 66.9508 15.8H72.3268C72.6468 15.8 72.9134 15.9173 73.1268 16.152C73.3614 16.3653 73.4788 16.632 73.4788 16.952V25.848C73.4788 26.168 73.3614 26.4453 73.1268 26.68C72.9134 26.8933 72.6468 27 72.3268 27H59.9427C59.6441 27 59.3774 26.8933 59.1428 26.68L57.0308 24.536C56.7961 24.3227 56.6788 24.056 56.6788 23.736V21.176C56.6788 20.856 56.7854 20.5893 56.9988 20.376C57.2334 20.1413 57.5108 20.024 57.8307 20.024H61.1268C61.4468 20.024 61.7134 20.1413 61.9268 20.376C62.1614 20.5893 62.2788 20.856 62.2788 21.176V23.736C62.2788 23.864 62.3214 23.9813 62.4068 24.088C62.4921 24.1733 62.5988 24.216 62.7268 24.216H67.4308C67.5588 24.216 67.6654 24.1733 67.7508 24.088C67.8361 23.9813 67.8788 23.864 67.8788 23.736V20.472C67.8788 20.344 67.8361 20.2373 67.7508 20.152C67.6654 20.0667 67.5588 20.024 67.4308 20.024H64.1348C64.0068 20.024 63.9001 19.9813 63.8148 19.896C63.7294 19.7893 63.6868 19.672 63.6868 19.544V17.656C63.6868 17.5493 63.6334 17.4533 63.5268 17.368C63.4414 17.2613 63.3348 17.208 63.2068 17.208H57.8307C57.5108 17.208 57.2334 17.1013 56.9988 16.888C56.7854 16.6533 56.6788 16.376 56.6788 16.056V5.752ZM86.4413 11.448C86.4413 11.3627 86.4199 11.288 86.3773 11.224L85.9293 10.456C85.8439 10.2853 85.7053 10.2 85.5133 10.2H78.5052C78.3773 10.2 78.2706 10.2533 78.1853 10.36C78.0999 10.4453 78.0573 10.552 78.0573 10.68V12.568C78.0573 12.6747 78.0999 12.7813 78.1853 12.888C78.2706 12.9733 78.3773 13.016 78.5052 13.016H80.3933C80.5213 13.016 80.6279 13.0587 80.7133 13.144C80.7986 13.2293 80.8413 13.336 80.8413 13.464V18.136C80.8413 18.264 80.8839 18.3813 80.9693 18.488C81.0546 18.5733 81.1613 18.616 81.2893 18.616H84.5853C84.7133 18.616 84.8199 18.6587 84.9053 18.744C84.9906 18.8293 85.0333 18.936 85.0333 19.064V19.544C85.0333 19.672 85.0759 19.7893 85.1613 19.896C85.2679 19.9813 85.3853 20.024 85.5133 20.024H85.9933C86.1213 20.024 86.2279 19.9813 86.3133 19.896C86.3986 19.7893 86.4413 19.672 86.4413 19.544V11.448ZM92.0413 25.848C92.0413 26.168 91.9239 26.4453 91.6893 26.68C91.4759 26.8933 91.2093 27 90.8893 27H87.5933C87.2733 27 86.9959 26.8933 86.7613 26.68C86.5479 26.4453 86.4413 26.168 86.4413 25.848V24.664C86.4413 24.536 86.3986 24.4293 86.3133 24.344C86.2279 24.2587 86.1213 24.216 85.9933 24.216H82.6973C82.5693 24.216 82.4626 24.1733 82.3773 24.088C82.2919 23.9813 82.2493 23.864 82.2493 23.736V21.88C82.2493 21.752 82.1959 21.6453 82.0893 21.56C82.0039 21.4533 81.8973 21.4 81.7693 21.4H81.2893C81.1613 21.4 81.0546 21.4533 80.9693 21.56C80.8839 21.6453 80.8413 21.752 80.8413 21.88V25.848C80.8413 26.168 80.7239 26.4453 80.4893 26.68C80.2759 26.8933 80.0093 27 79.6893 27H76.3932C76.0733 27 75.7959 26.8933 75.5613 26.68C75.3479 26.4453 75.2413 26.168 75.2413 25.848V5.752C75.2413 5.432 75.3479 5.16533 75.5613 4.952C75.7959 4.71733 76.0733 4.6 76.3932 4.6H88.5213C88.9906 4.6 89.3319 4.81333 89.5453 5.24L91.9132 9.976C91.9986 10.1253 92.0413 10.296 92.0413 10.488V25.848ZM93.8038 5.752C93.8038 5.432 93.9104 5.16533 94.1238 4.952C94.3584 4.71733 94.6358 4.6 94.9557 4.6H107.084C107.553 4.6 107.894 4.81333 108.108 5.24L110.476 9.976C110.561 10.1253 110.604 10.296 110.604 10.488V13.272C110.604 13.592 110.486 13.8693 110.252 14.104C110.038 14.3173 109.772 14.424 109.452 14.424H106.156C105.836 14.424 105.558 14.3173 105.324 14.104C105.11 13.8693 105.004 13.592 105.004 13.272V11.448C105.004 11.384 104.982 11.3093 104.94 11.224L104.492 10.456C104.406 10.2853 104.268 10.2 104.076 10.2H97.0677C96.9398 10.2 96.8224 10.2533 96.7158 10.36C96.6304 10.4453 96.5878 10.552 96.5878 10.68V12.536C96.5878 12.664 96.6304 12.7813 96.7158 12.888C96.8224 12.9733 96.9398 13.016 97.0677 13.016H98.9558C99.0838 13.016 99.1904 13.0587 99.2758 13.144C99.3611 13.2293 99.4038 13.336 99.4038 13.464V13.944C99.4038 14.072 99.4464 14.1893 99.5318 14.296C99.6171 14.3813 99.7238 14.424 99.8518 14.424H103.148C103.276 14.424 103.382 14.4667 103.468 14.552C103.553 14.6373 103.596 14.744 103.596 14.872V19.544C103.596 19.672 103.553 19.7893 103.468 19.896C103.382 19.9813 103.276 20.024 103.148 20.024H101.26C101.132 20.024 101.025 19.9813 100.94 19.896C100.854 19.7893 100.812 19.672 100.812 19.544V17.656C100.812 17.528 100.758 17.4213 100.652 17.336C100.566 17.2507 100.46 17.208 100.332 17.208H99.8518C99.7238 17.208 99.6171 17.2507 99.5318 17.336C99.4464 17.4213 99.4038 17.528 99.4038 17.656V25.848C99.4038 26.168 99.2864 26.4453 99.0518 26.68C98.8384 26.8933 98.5718 27 98.2518 27H94.9557C94.6358 27 94.3584 26.8933 94.1238 26.68C93.9104 26.4453 93.8038 26.168 93.8038 25.848V5.752ZM112.054 5.752C112.054 5.432 112.16 5.16533 112.374 4.952C112.608 4.71733 112.886 4.6 113.206 4.6H125.334C125.803 4.6 126.144 4.81333 126.358 5.24L128.726 9.976C128.811 10.1253 128.854 10.296 128.854 10.488V13.272C128.854 13.592 128.736 13.8693 128.502 14.104C128.288 14.3173 128.022 14.424 127.702 14.424H124.406C124.086 14.424 123.808 14.3173 123.574 14.104C123.36 13.8693 123.254 13.592 123.254 13.272V11.448C123.254 11.384 123.232 11.3093 123.19 11.224L122.742 10.456C122.656 10.2853 122.518 10.2 122.326 10.2H115.318C115.19 10.2 115.072 10.2533 114.966 10.36C114.88 10.4453 114.838 10.552 114.838 10.68V12.536C114.838 12.664 114.88 12.7813 114.966 12.888C115.072 12.9733 115.19 13.016 115.318 13.016H117.206C117.334 13.016 117.44 13.0587 117.526 13.144C117.611 13.2293 117.654 13.336 117.654 13.464V13.944C117.654 14.072 117.696 14.1893 117.782 14.296C117.867 14.3813 117.974 14.424 118.102 14.424H121.398C121.526 14.424 121.632 14.4667 121.718 14.552C121.803 14.6373 121.846 14.744 121.846 14.872V19.544C121.846 19.672 121.803 19.7893 121.718 19.896C121.632 19.9813 121.526 20.024 121.398 20.024H119.51C119.382 20.024 119.275 19.9813 119.19 19.896C119.104 19.7893 119.062 19.672 119.062 19.544V17.656C119.062 17.528 119.008 17.4213 118.902 17.336C118.816 17.2507 118.71 17.208 118.582 17.208H118.102C117.974 17.208 117.867 17.2507 117.782 17.336C117.696 17.4213 117.654 17.528 117.654 17.656V23.736C117.654 23.864 117.696 23.9813 117.782 24.088C117.867 24.1733 117.974 24.216 118.102 24.216H122.806C122.934 24.216 123.04 24.1733 123.126 24.088C123.211 23.9813 123.254 23.864 123.254 23.736V21.144C123.254 20.8453 123.36 20.5893 123.574 20.376C123.808 20.1413 124.086 20.024 124.406 20.024H127.702C128.022 20.024 128.288 20.1413 128.502 20.376C128.736 20.5893 128.854 20.8453 128.854 21.144V25.848C128.854 26.168 128.736 26.4453 128.502 26.68C128.288 26.8933 128.022 27 127.702 27H113.206C112.886 27 112.608 26.8933 112.374 26.68C112.16 26.4453 112.054 26.168 112.054 25.848V5.752Z"/>
</mask>
<path d="M10.56 23.736C10.56 23.8 10.5707 23.864 10.592 23.928C10.6133 23.992 10.6453 24.0453 10.688 24.088C10.7307 24.1307 10.7733 24.1627 10.816 24.184C10.88 24.2053 10.944 24.216 11.008 24.216H15.68C15.808 24.216 15.9147 24.1733 16 24.088C16.1067 23.9813 16.16 23.864 16.16 23.736V11.448C16.16 11.384 16.1387 11.3093 16.096 11.224L15.648 10.456C15.5627 10.2853 15.424 10.2 15.232 10.2H8.224C8.096 10.2 7.97867 10.2533 7.872 10.36C7.78667 10.4453 7.744 10.552 7.744 10.68V12.568C7.744 12.6747 7.78667 12.7813 7.872 12.888C7.97867 12.9733 8.096 13.016 8.224 13.016H10.112C10.24 13.016 10.3467 13.0587 10.432 13.144C10.5173 13.2293 10.56 13.336 10.56 13.464V23.736ZM4.96 5.752C4.96 5.432 5.06667 5.16533 5.28 4.952C5.51467 4.71733 5.792 4.6 6.112 4.6H18.24C18.7093 4.6 19.0507 4.81333 19.264 5.24L21.632 9.976C21.7173 10.1253 21.76 10.296 21.76 10.488V23.736C21.76 24.056 21.6427 24.3227 21.408 24.536L19.296 26.68C19.0613 26.8933 18.7947 27 18.496 27H6.112C5.792 27 5.51467 26.8933 5.28 26.68C5.06667 26.4453 4.96 26.168 4.96 25.848V5.752ZM23.5225 5.752C23.5225 5.432 23.6292 5.16533 23.8425 4.952C24.0772 4.71733 24.3545 4.6 24.6745 4.6H25.6025C26.0718 4.6 26.4132 4.81333 26.6265 5.24L28.9945 9.976C29.0798 10.1253 29.1225 10.296 29.1225 10.488V25.848C29.1225 26.168 29.0052 26.4453 28.7705 26.68C28.5572 26.8933 28.2905 27 27.9705 27H24.6745C24.3545 27 24.0772 26.8933 23.8425 26.68C23.6292 26.4453 23.5225 26.168 23.5225 25.848V5.752ZM42.0975 19.064C42.0975 18.9787 42.0762 18.904 42.0335 18.84C41.9908 18.776 41.9375 18.7227 41.8735 18.68C41.8095 18.6373 41.7348 18.616 41.6495 18.616H41.1695C41.0415 18.616 40.9242 18.6587 40.8175 18.744C40.7322 18.8293 40.6895 18.936 40.6895 19.064V20.952C40.6895 21.0373 40.6682 21.112 40.6255 21.176C40.5828 21.24 40.5295 21.2933 40.4655 21.336C40.4015 21.3787 40.3268 21.4 40.2415 21.4H38.3535C38.2255 21.4 38.1188 21.3573 38.0335 21.272C37.9482 21.1867 37.9055 21.08 37.9055 20.952V16.952C37.9055 16.632 38.0122 16.3653 38.2255 16.152C38.4602 15.9173 38.7375 15.8 39.0575 15.8H46.5455C46.8655 15.8 47.1322 15.9173 47.3455 16.152C47.5802 16.3653 47.6975 16.632 47.6975 16.952V23.736C47.6975 24.056 47.5802 24.3227 47.3455 24.536L45.2335 26.68C44.9988 26.8933 44.7322 27 44.4335 27H32.0495C31.7295 27 31.4522 26.8933 31.2175 26.68C31.0042 26.4453 30.8975 26.168 30.8975 25.848V5.752C30.8975 5.432 31.0042 5.16533 31.2175 4.952C31.4522 4.71733 31.7295 4.6 32.0495 4.6H44.1775C44.6468 4.6 44.9882 4.81333 45.2015 5.24L47.5695 9.976C47.6548 10.1253 47.6975 10.296 47.6975 10.488V13.272C47.6975 13.592 47.5802 13.8693 47.3455 14.104C47.1322 14.3173 46.8655 14.424 46.5455 14.424H43.2495C42.9295 14.424 42.6522 14.3173 42.4175 14.104C42.2042 13.8693 42.0975 13.592 42.0975 13.272V11.448C42.0975 11.384 42.0762 11.3093 42.0335 11.224L41.5855 10.456C41.5002 10.2853 41.3615 10.2 41.1695 10.2H34.1615C34.0335 10.2 33.9268 10.2533 33.8415 10.36C33.7562 10.4453 33.7135 10.552 33.7135 10.68V12.568C33.7135 12.6747 33.7562 12.7813 33.8415 12.888C33.9268 12.9733 34.0335 13.016 34.1615 13.016H36.0495C36.1775 13.016 36.2842 13.0587 36.3695 13.144C36.4548 13.2293 36.4975 13.336 36.4975 13.464V23.736C36.4975 23.864 36.5402 23.9813 36.6255 24.088C36.7108 24.1733 36.8175 24.216 36.9455 24.216H41.6495C41.7775 24.216 41.8842 24.1733 41.9695 24.088C42.0548 23.9813 42.0975 23.864 42.0975 23.736V19.064ZM49.3038 5.752C49.3038 5.432 49.4104 5.16533 49.6238 4.952C49.8584 4.71733 50.1358 4.6 50.4557 4.6H51.3838C51.8531 4.6 52.1944 4.81333 52.4078 5.24L54.7758 9.976C54.8611 10.1253 54.9038 10.296 54.9038 10.488V25.848C54.9038 26.168 54.7864 26.4453 54.5518 26.68C54.3384 26.8933 54.0718 27 53.7518 27H50.4557C50.1358 27 49.8584 26.8933 49.6238 26.68C49.4104 26.4453 49.3038 26.168 49.3038 25.848V5.752ZM56.6788 5.752C56.6788 5.45333 56.7854 5.19733 56.9988 4.984C57.2334 4.74933 57.5108 4.632 57.8307 4.632H69.9588C70.4281 4.632 70.7694 4.83467 70.9828 5.24L73.3507 9.976C73.4361 10.1467 73.4788 10.3173 73.4788 10.488V13.272C73.4788 13.4853 73.4254 13.6773 73.3188 13.848C73.2121 14.0187 73.0734 14.1573 72.9028 14.264C72.7321 14.3707 72.5401 14.424 72.3268 14.424H69.0308C68.7108 14.424 68.4334 14.3173 68.1988 14.104C67.9854 13.8693 67.8788 13.592 67.8788 13.272V11.448C67.8788 11.384 67.8574 11.3093 67.8148 11.224L67.3668 10.456C67.2814 10.3067 67.1428 10.232 66.9508 10.232H59.9427C59.8148 10.232 59.7081 10.2747 59.6228 10.36C59.5374 10.4453 59.4948 10.552 59.4948 10.68V12.568C59.4948 12.696 59.5374 12.8027 59.6228 12.888C59.7081 12.9733 59.8148 13.016 59.9427 13.016H61.8308C61.9588 13.016 62.0654 13.0587 62.1508 13.144C62.2361 13.2293 62.2788 13.336 62.2788 13.464V13.944C62.2788 14.072 62.3214 14.1893 62.4068 14.296C62.4921 14.3813 62.5988 14.424 62.7268 14.424H66.0228C66.1508 14.424 66.2574 14.4667 66.3428 14.552C66.4281 14.6373 66.4708 14.744 66.4708 14.872V15.352C66.4708 15.48 66.5134 15.5867 66.5988 15.672C66.7054 15.7573 66.8228 15.8 66.9508 15.8H72.3268C72.6468 15.8 72.9134 15.9173 73.1268 16.152C73.3614 16.3653 73.4788 16.632 73.4788 16.952V25.848C73.4788 26.168 73.3614 26.4453 73.1268 26.68C72.9134 26.8933 72.6468 27 72.3268 27H59.9427C59.6441 27 59.3774 26.8933 59.1428 26.68L57.0308 24.536C56.7961 24.3227 56.6788 24.056 56.6788 23.736V21.176C56.6788 20.856 56.7854 20.5893 56.9988 20.376C57.2334 20.1413 57.5108 20.024 57.8307 20.024H61.1268C61.4468 20.024 61.7134 20.1413 61.9268 20.376C62.1614 20.5893 62.2788 20.856 62.2788 21.176V23.736C62.2788 23.864 62.3214 23.9813 62.4068 24.088C62.4921 24.1733 62.5988 24.216 62.7268 24.216H67.4308C67.5588 24.216 67.6654 24.1733 67.7508 24.088C67.8361 23.9813 67.8788 23.864 67.8788 23.736V20.472C67.8788 20.344 67.8361 20.2373 67.7508 20.152C67.6654 20.0667 67.5588 20.024 67.4308 20.024H64.1348C64.0068 20.024 63.9001 19.9813 63.8148 19.896C63.7294 19.7893 63.6868 19.672 63.6868 19.544V17.656C63.6868 17.5493 63.6334 17.4533 63.5268 17.368C63.4414 17.2613 63.3348 17.208 63.2068 17.208H57.8307C57.5108 17.208 57.2334 17.1013 56.9988 16.888C56.7854 16.6533 56.6788 16.376 56.6788 16.056V5.752ZM86.4413 11.448C86.4413 11.3627 86.4199 11.288 86.3773 11.224L85.9293 10.456C85.8439 10.2853 85.7053 10.2 85.5133 10.2H78.5052C78.3773 10.2 78.2706 10.2533 78.1853 10.36C78.0999 10.4453 78.0573 10.552 78.0573 10.68V12.568C78.0573 12.6747 78.0999 12.7813 78.1853 12.888C78.2706 12.9733 78.3773 13.016 78.5052 13.016H80.3933C80.5213 13.016 80.6279 13.0587 80.7133 13.144C80.7986 13.2293 80.8413 13.336 80.8413 13.464V18.136C80.8413 18.264 80.8839 18.3813 80.9693 18.488C81.0546 18.5733 81.1613 18.616 81.2893 18.616H84.5853C84.7133 18.616 84.8199 18.6587 84.9053 18.744C84.9906 18.8293 85.0333 18.936 85.0333 19.064V19.544C85.0333 19.672 85.0759 19.7893 85.1613 19.896C85.2679 19.9813 85.3853 20.024 85.5133 20.024H85.9933C86.1213 20.024 86.2279 19.9813 86.3133 19.896C86.3986 19.7893 86.4413 19.672 86.4413 19.544V11.448ZM92.0413 25.848C92.0413 26.168 91.9239 26.4453 91.6893 26.68C91.4759 26.8933 91.2093 27 90.8893 27H87.5933C87.2733 27 86.9959 26.8933 86.7613 26.68C86.5479 26.4453 86.4413 26.168 86.4413 25.848V24.664C86.4413 24.536 86.3986 24.4293 86.3133 24.344C86.2279 24.2587 86.1213 24.216 85.9933 24.216H82.6973C82.5693 24.216 82.4626 24.1733 82.3773 24.088C82.2919 23.9813 82.2493 23.864 82.2493 23.736V21.88C82.2493 21.752 82.1959 21.6453 82.0893 21.56C82.0039 21.4533 81.8973 21.4 81.7693 21.4H81.2893C81.1613 21.4 81.0546 21.4533 80.9693 21.56C80.8839 21.6453 80.8413 21.752 80.8413 21.88V25.848C80.8413 26.168 80.7239 26.4453 80.4893 26.68C80.2759 26.8933 80.0093 27 79.6893 27H76.3932C76.0733 27 75.7959 26.8933 75.5613 26.68C75.3479 26.4453 75.2413 26.168 75.2413 25.848V5.752C75.2413 5.432 75.3479 5.16533 75.5613 4.952C75.7959 4.71733 76.0733 4.6 76.3932 4.6H88.5213C88.9906 4.6 89.3319 4.81333 89.5453 5.24L91.9132 9.976C91.9986 10.1253 92.0413 10.296 92.0413 10.488V25.848ZM93.8038 5.752C93.8038 5.432 93.9104 5.16533 94.1238 4.952C94.3584 4.71733 94.6358 4.6 94.9557 4.6H107.084C107.553 4.6 107.894 4.81333 108.108 5.24L110.476 9.976C110.561 10.1253 110.604 10.296 110.604 10.488V13.272C110.604 13.592 110.486 13.8693 110.252 14.104C110.038 14.3173 109.772 14.424 109.452 14.424H106.156C105.836 14.424 105.558 14.3173 105.324 14.104C105.11 13.8693 105.004 13.592 105.004 13.272V11.448C105.004 11.384 104.982 11.3093 104.94 11.224L104.492 10.456C104.406 10.2853 104.268 10.2 104.076 10.2H97.0677C96.9398 10.2 96.8224 10.2533 96.7158 10.36C96.6304 10.4453 96.5878 10.552 96.5878 10.68V12.536C96.5878 12.664 96.6304 12.7813 96.7158 12.888C96.8224 12.9733 96.9398 13.016 97.0677 13.016H98.9558C99.0838 13.016 99.1904 13.0587 99.2758 13.144C99.3611 13.2293 99.4038 13.336 99.4038 13.464V13.944C99.4038 14.072 99.4464 14.1893 99.5318 14.296C99.6171 14.3813 99.7238 14.424 99.8518 14.424H103.148C103.276 14.424 103.382 14.4667 103.468 14.552C103.553 14.6373 103.596 14.744 103.596 14.872V19.544C103.596 19.672 103.553 19.7893 103.468 19.896C103.382 19.9813 103.276 20.024 103.148 20.024H101.26C101.132 20.024 101.025 19.9813 100.94 19.896C100.854 19.7893 100.812 19.672 100.812 19.544V17.656C100.812 17.528 100.758 17.4213 100.652 17.336C100.566 17.2507 100.46 17.208 100.332 17.208H99.8518C99.7238 17.208 99.6171 17.2507 99.5318 17.336C99.4464 17.4213 99.4038 17.528 99.4038 17.656V25.848C99.4038 26.168 99.2864 26.4453 99.0518 26.68C98.8384 26.8933 98.5718 27 98.2518 27H94.9557C94.6358 27 94.3584 26.8933 94.1238 26.68C93.9104 26.4453 93.8038 26.168 93.8038 25.848V5.752ZM112.054 5.752C112.054 5.432 112.16 5.16533 112.374 4.952C112.608 4.71733 112.886 4.6 113.206 4.6H125.334C125.803 4.6 126.144 4.81333 126.358 5.24L128.726 9.976C128.811 10.1253 128.854 10.296 128.854 10.488V13.272C128.854 13.592 128.736 13.8693 128.502 14.104C128.288 14.3173 128.022 14.424 127.702 14.424H124.406C124.086 14.424 123.808 14.3173 123.574 14.104C123.36 13.8693 123.254 13.592 123.254 13.272V11.448C123.254 11.384 123.232 11.3093 123.19 11.224L122.742 10.456C122.656 10.2853 122.518 10.2 122.326 10.2H115.318C115.19 10.2 115.072 10.2533 114.966 10.36C114.88 10.4453 114.838 10.552 114.838 10.68V12.536C114.838 12.664 114.88 12.7813 114.966 12.888C115.072 12.9733 115.19 13.016 115.318 13.016H117.206C117.334 13.016 117.44 13.0587 117.526 13.144C117.611 13.2293 117.654 13.336 117.654 13.464V13.944C117.654 14.072 117.696 14.1893 117.782 14.296C117.867 14.3813 117.974 14.424 118.102 14.424H121.398C121.526 14.424 121.632 14.4667 121.718 14.552C121.803 14.6373 121.846 14.744 121.846 14.872V19.544C121.846 19.672 121.803 19.7893 121.718 19.896C121.632 19.9813 121.526 20.024 121.398 20.024H119.51C119.382 20.024 119.275 19.9813 119.19 19.896C119.104 19.7893 119.062 19.672 119.062 19.544V17.656C119.062 17.528 119.008 17.4213 118.902 17.336C118.816 17.2507 118.71 17.208 118.582 17.208H118.102C117.974 17.208 117.867 17.2507 117.782 17.336C117.696 17.4213 117.654 17.528 117.654 17.656V23.736C117.654 23.864 117.696 23.9813 117.782 24.088C117.867 24.1733 117.974 24.216 118.102 24.216H122.806C122.934 24.216 123.04 24.1733 123.126 24.088C123.211 23.9813 123.254 23.864 123.254 23.736V21.144C123.254 20.8453 123.36 20.5893 123.574 20.376C123.808 20.1413 124.086 20.024 124.406 20.024H127.702C128.022 20.024 128.288 20.1413 128.502 20.376C128.736 20.5893 128.854 20.8453 128.854 21.144V25.848C128.854 26.168 128.736 26.4453 128.502 26.68C128.288 26.8933 128.022 27 127.702 27H113.206C112.886 27 112.608 26.8933 112.374 26.68C112.16 26.4453 112.054 26.168 112.054 25.848V5.752Z" fill="#00FF04"/>
<path d="M10.592 23.928L6.79727 25.1929L6.79727 25.1929L10.592 23.928ZM10.688 24.088L7.85957 26.9164L7.85957 26.9164L10.688 24.088ZM10.816 24.184L9.02716 27.7617L9.28141 27.8888L9.55108 27.9787L10.816 24.184ZM16 24.088L18.8284 26.9164L18.8284 26.9164L16 24.088ZM16.096 11.224L19.6737 9.43514L19.6161 9.31985L19.5511 9.20851L16.096 11.224ZM15.648 10.456L12.0703 12.2449L12.1279 12.3601L12.1929 12.4715L15.648 10.456ZM7.872 10.36L5.04357 7.53157L5.04357 7.53157L7.872 10.36ZM7.872 12.888L4.74853 15.3868L5.02617 15.7338L5.37322 16.0115L7.872 12.888ZM10.432 13.144L13.2604 10.3156L13.2604 10.3156L10.432 13.144ZM5.28 4.952L8.10843 7.78043L8.10843 7.78042L5.28 4.952ZM19.264 5.24L22.8417 3.45115L22.8417 3.45115L19.264 5.24ZM21.632 9.976L18.0543 11.7649L18.1039 11.8642L18.159 11.9606L21.632 9.976ZM21.408 24.536L18.7173 21.5762L18.6357 21.6504L18.5584 21.7289L21.408 24.536ZM19.296 26.68L21.9867 29.6398L22.0683 29.5656L22.1456 29.4871L19.296 26.68ZM5.28 26.68L2.32024 29.3707L2.44837 29.5116L2.58931 29.6398L5.28 26.68ZM6.56 23.736C6.56 24.2527 6.64738 24.7432 6.79727 25.1929L14.3867 22.6631C14.494 22.9848 14.56 23.3473 14.56 23.736H6.56ZM6.79727 25.1929C6.99154 25.7757 7.32825 26.3851 7.85957 26.9164L13.5164 21.2596C13.9624 21.7056 14.2351 22.2083 14.3867 22.6631L6.79727 25.1929ZM7.85957 26.9164C8.1295 27.1864 8.5136 27.5049 9.02716 27.7617L12.6048 20.6063C13.0331 20.8204 13.3318 21.075 13.5164 21.2596L7.85957 26.9164ZM9.55108 27.9787C10.0008 28.1286 10.4913 28.216 11.008 28.216V20.216C11.3967 20.216 11.7592 20.282 12.0809 20.3893L9.55108 27.9787ZM11.008 28.216H15.68V20.216H11.008V28.216ZM15.68 28.216C16.7974 28.216 17.9439 27.8009 18.8284 26.9164L13.1716 21.2596C13.4923 20.9389 13.8956 20.66 14.3704 20.4701C14.8406 20.282 15.2931 20.216 15.68 20.216V28.216ZM18.8284 26.9164C19.5411 26.2038 20.16 25.1127 20.16 23.736H12.16C12.16 22.6153 12.6722 21.7589 13.1716 21.2596L18.8284 26.9164ZM20.16 23.736V11.448H12.16V23.736H20.16ZM20.16 11.448C20.16 10.5335 19.869 9.82576 19.6737 9.43514L12.5183 13.0129C12.4083 12.7929 12.16 12.2345 12.16 11.448H20.16ZM19.5511 9.20851L19.1031 8.44051L12.1929 12.4715L12.6409 13.2395L19.5511 9.20851ZM19.2257 8.66714C18.9078 8.0314 18.3829 7.35371 17.5764 6.85737C16.7713 6.36192 15.9339 6.2 15.232 6.2V14.2C14.7221 14.2 14.05 14.0807 13.3836 13.6706C12.7157 13.2596 12.3028 12.7099 12.0703 12.2449L19.2257 8.66714ZM15.232 6.2H8.224V14.2H15.232V6.2ZM8.224 6.2C6.84733 6.2 5.75625 6.8189 5.04357 7.53157L10.7004 13.1884C10.2011 13.6878 9.34467 14.2 8.224 14.2V6.2ZM5.04357 7.53157C4.15906 8.41609 3.744 9.56255 3.744 10.68H11.744C11.744 11.0669 11.678 11.5194 11.4899 11.9896C11.3 12.4644 11.0211 12.8677 10.7004 13.1884L5.04357 7.53157ZM3.744 10.68V12.568H11.744V10.68H3.744ZM3.744 12.568C3.744 13.8117 4.2574 14.7729 4.74853 15.3868L10.9955 10.3892C11.3159 10.7898 11.744 11.5376 11.744 12.568H3.744ZM5.37322 16.0115C6.138 16.6233 7.12432 17.016 8.224 17.016V9.016C9.06768 9.016 9.81933 9.32336 10.3708 9.76453L5.37322 16.0115ZM8.224 17.016H10.112V9.016H8.224V17.016ZM10.112 17.016C9.72513 17.016 9.27262 16.95 8.80244 16.7619C8.3276 16.572 7.92428 16.2931 7.60358 15.9724L13.2604 10.3156C12.3759 9.43105 11.2294 9.016 10.112 9.016V17.016ZM7.60357 15.9724C7.28288 15.6517 7.00403 15.2484 6.81409 14.7736C6.62602 14.3034 6.56 13.8509 6.56 13.464H14.56C14.56 12.3466 14.1449 11.2001 13.2604 10.3156L7.60357 15.9724ZM6.56 13.464V23.736H14.56V13.464H6.56ZM8.96 5.752C8.96 6.04287 8.90998 6.40739 8.75391 6.79756C8.59597 7.19241 8.36512 7.52373 8.10843 7.78043L2.45157 2.12357C1.43906 3.13609 0.96 4.44255 0.96 5.752H8.96ZM8.10843 7.78042C7.89877 7.99008 7.60455 8.21026 7.22256 8.37187C6.8377 8.5347 6.45341 8.6 6.112 8.6V0.599998C4.68799 0.599998 3.40531 1.16983 2.45157 2.12358L8.10843 7.78042ZM6.112 8.6H18.24V0.599998H6.112V8.6ZM18.24 8.6C17.8516 8.6 17.2925 8.50479 16.728 8.15199C16.1673 7.80156 15.8472 7.35075 15.6863 7.02885L22.8417 3.45115C22.4674 2.70259 21.87 1.93177 20.968 1.36801C20.0622 0.801869 19.0978 0.599998 18.24 0.599998V8.6ZM15.6863 7.02885L18.0543 11.7649L25.2097 8.18715L22.8417 3.45115L15.6863 7.02885ZM18.159 11.9606C17.8601 11.4375 17.76 10.9094 17.76 10.488H25.76C25.76 9.68264 25.5745 8.81316 25.105 7.99143L18.159 11.9606ZM17.76 10.488V23.736H25.76V10.488H17.76ZM17.76 23.736C17.76 23.3963 17.8249 22.9874 18.0107 22.565C18.197 22.1418 18.4574 21.8126 18.7173 21.5762L24.0987 27.4958C25.1758 26.5166 25.76 25.1714 25.76 23.736H17.76ZM18.5584 21.7289L16.4464 23.8729L22.1456 29.4871L24.2576 27.3431L18.5584 21.7289ZM16.6053 23.7202C16.8047 23.539 17.0804 23.3477 17.4344 23.2061C17.7924 23.0629 18.1571 23 18.496 23V31C19.8551 31 21.0655 30.4772 21.9867 29.6398L16.6053 23.7202ZM18.496 23H6.112V31H18.496V23ZM6.112 23C6.40494 23 6.74618 23.0506 7.09992 23.1866C7.45424 23.3229 7.74622 23.5162 7.97069 23.7202L2.58931 29.6398C3.56758 30.5291 4.80687 31 6.112 31V23ZM8.23976 23.9893C8.44383 24.2138 8.6371 24.5058 8.77338 24.8601C8.90943 25.2138 8.96 25.5551 8.96 25.848H0.96C0.96 27.1531 1.4309 28.3924 2.32024 29.3707L8.23976 23.9893ZM8.96 25.848V5.752H0.96V25.848H8.96ZM23.8425 4.952L26.6709 7.78043L26.6709 7.78042L23.8425 4.952ZM26.6265 5.24L23.0488 7.02885L23.0488 7.02885L26.6265 5.24ZM28.9945 9.976L25.4168 11.7649L25.4664 11.8642L25.5215 11.9606L28.9945 9.976ZM28.7705 26.68L25.9421 23.8516L25.9421 23.8516L28.7705 26.68ZM23.8425 26.68L20.8827 29.3707L21.0109 29.5116L21.1518 29.6398L23.8425 26.68ZM27.5225 5.752C27.5225 6.04287 27.4725 6.40739 27.3164 6.79756C27.1585 7.19241 26.9276 7.52373 26.6709 7.78043L21.0141 2.12357C20.0016 3.13609 19.5225 4.44255 19.5225 5.752H27.5225ZM26.6709 7.78042C26.4613 7.99008 26.1671 8.21026 25.7851 8.37187C25.4002 8.5347 25.0159 8.6 24.6745 8.6V0.599998C23.2505 0.599998 21.9678 1.16983 21.0141 2.12358L26.6709 7.78042ZM24.6745 8.6H25.6025V0.599998H24.6745V8.6ZM25.6025 8.6C25.2141 8.6 24.655 8.5048 24.0905 8.15199C23.5298 7.80156 23.2097 7.35074 23.0488 7.02885L30.2042 3.45115C29.8299 2.70259 29.2325 1.93177 28.3305 1.36801C27.4247 0.801869 26.4603 0.599998 25.6025 0.599998V8.6ZM23.0488 7.02885L25.4168 11.7649L32.5722 8.18715L30.2042 3.45115L23.0488 7.02885ZM25.5215 11.9606C25.2226 11.4375 25.1225 10.9094 25.1225 10.488H33.1225C33.1225 9.68264 32.937 8.81316 32.4675 7.99143L25.5215 11.9606ZM25.1225 10.488V25.848H33.1225V10.488H25.1225ZM25.1225 25.848C25.1225 25.5066 25.1878 25.1223 25.3506 24.7374C25.5122 24.3555 25.7324 24.0612 25.9421 23.8516L31.5989 29.5084C32.5527 28.5547 33.1225 27.272 33.1225 25.848H25.1225ZM25.9421 23.8516C26.1988 23.5949 26.5301 23.364 26.9249 23.2061C27.3151 23.05 27.6796 23 27.9705 23V31C29.2799 31 30.5864 30.5209 31.5989 29.5084L25.9421 23.8516ZM27.9705 23H24.6745V31H27.9705V23ZM24.6745 23C24.9674 23 25.3087 23.0506 25.6624 23.1866C26.0167 23.3229 26.3087 23.5162 26.5332 23.7202L21.1518 29.6398C22.1301 30.5291 23.3694 31 24.6745 31V23ZM26.8023 23.9893C27.0063 24.2138 27.1996 24.5058 27.3359 24.8601C27.4719 25.2138 27.5225 25.5551 27.5225 25.848H19.5225C19.5225 27.1531 19.9934 28.3924 20.8827 29.3707L26.8023 23.9893ZM27.5225 25.848V5.752H19.5225V25.848H27.5225ZM42.0335 18.84L45.3617 16.6212L45.3617 16.6212L42.0335 18.84ZM41.8735 18.68L44.0923 15.3518L44.0923 15.3518L41.8735 18.68ZM40.8175 18.744L38.3187 15.6205L38.1457 15.7589L37.9891 15.9156L40.8175 18.744ZM40.6255 21.176L37.2973 18.9572L37.2973 18.9572L40.6255 21.176ZM40.4655 21.336L42.6843 24.6642L42.6843 24.6642L40.4655 21.336ZM38.0335 21.272L40.8619 18.4436L40.8619 18.4436L38.0335 21.272ZM47.3455 16.152L44.3857 18.8427L44.5139 18.9836L44.6548 19.1118L47.3455 16.152ZM47.3455 24.536L44.6548 21.5762L44.5732 21.6504L44.4959 21.7289L47.3455 24.536ZM45.2335 26.68L47.9242 29.6398L48.0058 29.5656L48.0831 29.4871L45.2335 26.68ZM31.2175 26.68L28.2577 29.3707L28.3859 29.5116L28.5268 29.6398L31.2175 26.68ZM31.2175 4.952L34.0459 7.78043L34.0459 7.78042L31.2175 4.952ZM45.2015 5.24L48.7792 3.45115L48.7792 3.45115L45.2015 5.24ZM47.5695 9.976L43.9918 11.7649L44.0414 11.8642L44.0965 11.9606L47.5695 9.976ZM47.3455 14.104L44.5171 11.2756L44.5171 11.2756L47.3455 14.104ZM42.4175 14.104L39.4577 16.7947L39.5859 16.9356L39.7268 17.0638L42.4175 14.104ZM42.0335 11.224L45.6112 9.43514L45.5536 9.31985L45.4886 9.20851L42.0335 11.224ZM41.5855 10.456L38.0078 12.2449L38.0654 12.3601L38.1304 12.4715L41.5855 10.456ZM33.8415 10.36L36.6699 13.1884L36.8266 13.0318L36.965 12.8588L33.8415 10.36ZM33.8415 12.888L30.718 15.3868L30.8564 15.5598L31.0131 15.7164L33.8415 12.888ZM36.3695 13.144L39.1979 10.3156L39.1979 10.3156L36.3695 13.144ZM36.6255 24.088L33.502 26.5868L33.6404 26.7598L33.7971 26.9164L36.6255 24.088ZM41.9695 24.088L44.7979 26.9164L44.9546 26.7598L45.093 26.5868L41.9695 24.088ZM46.0975 19.064C46.0975 18.2787 45.8897 17.4132 45.3617 16.6212L38.7053 21.0588C38.2626 20.3948 38.0975 19.6786 38.0975 19.064H46.0975ZM45.3617 16.6212C45.0261 16.1178 44.5957 15.6874 44.0923 15.3518L39.6547 22.0082C39.2793 21.7579 38.9556 21.4342 38.7053 21.0588L45.3617 16.6212ZM44.0923 15.3518C43.3003 14.8238 42.4348 14.616 41.6495 14.616V22.616C41.0349 22.616 40.3187 22.4509 39.6547 22.0082L44.0923 15.3518ZM41.6495 14.616H41.1695V22.616H41.6495V14.616ZM41.1695 14.616C40.0698 14.616 39.0835 15.0087 38.3187 15.6205L43.3163 21.8675C42.7648 22.3086 42.0132 22.616 41.1695 22.616V14.616ZM37.9891 15.9156C37.1046 16.8001 36.6895 17.9466 36.6895 19.064H44.6895C44.6895 19.4509 44.6235 19.9034 44.4354 20.3736C44.2455 20.8484 43.9666 21.2517 43.6459 21.5724L37.9891 15.9156ZM36.6895 19.064V20.952H44.6895V19.064H36.6895ZM36.6895 20.952C36.6895 20.3374 36.8546 19.6212 37.2973 18.9572L43.9537 23.3948C44.4817 22.6028 44.6895 21.7373 44.6895 20.952H36.6895ZM37.2973 18.9572C37.5476 18.5818 37.8713 18.2581 38.2467 18.0078L42.6843 24.6642C43.1877 24.3286 43.6181 23.8982 43.9537 23.3948L37.2973 18.9572ZM38.2467 18.0078C38.9107 17.5651 39.6269 17.4 40.2415 17.4V25.4C41.0268 25.4 41.8923 25.1922 42.6843 24.6642L38.2467 18.0078ZM40.2415 17.4H38.3535V25.4H40.2415V17.4ZM38.3535 17.4C38.7404 17.4 39.1929 17.466 39.6631 17.6541C40.1379 17.844 40.5412 18.1229 40.8619 18.4436L35.2051 24.1004C36.0896 24.9849 37.2361 25.4 38.3535 25.4V17.4ZM40.8619 18.4436C41.1826 18.7643 41.4615 19.1676 41.6514 19.6424C41.8395 20.1126 41.9055 20.5651 41.9055 20.952H33.9055C33.9055 22.0694 34.3206 23.2159 35.2051 24.1004L40.8619 18.4436ZM41.9055 20.952V16.952H33.9055V20.952H41.9055ZM41.9055 16.952C41.9055 17.2429 41.8555 17.6074 41.6994 17.9976C41.5415 18.3924 41.3106 18.7237 41.0539 18.9804L35.3971 13.3236C34.3846 14.3361 33.9055 15.6426 33.9055 16.952H41.9055ZM41.0539 18.9804C40.8443 19.1901 40.55 19.4103 40.1681 19.5719C39.7832 19.7347 39.3989 19.8 39.0575 19.8V11.8C37.6335 11.8 36.3508 12.3698 35.3971 13.3236L41.0539 18.9804ZM39.0575 19.8H46.5455V11.8H39.0575V19.8ZM46.5455 19.8C46.2058 19.8 45.7969 19.7351 45.3745 19.5493C44.9513 19.363 44.622 19.1026 44.3857 18.8427L50.3053 13.4613C49.3261 12.3842 47.9809 11.8 46.5455 11.8V19.8ZM44.6548 19.1118C44.3949 18.8754 44.1345 18.5462 43.9482 18.123C43.7624 17.7006 43.6975 17.2917 43.6975 16.952H51.6975C51.6975 15.5166 51.1133 14.1714 50.0362 13.1922L44.6548 19.1118ZM43.6975 16.952V23.736H51.6975V16.952H43.6975ZM43.6975 23.736C43.6975 23.3963 43.7624 22.9874 43.9482 22.565C44.1345 22.1418 44.3949 21.8126 44.6548 21.5762L50.0362 27.4958C51.1133 26.5166 51.6975 25.1714 51.6975 23.736H43.6975ZM44.4959 21.7289L42.3839 23.8729L48.0831 29.4871L50.1951 27.3431L44.4959 21.7289ZM42.5428 23.7202C42.7422 23.539 43.0179 23.3477 43.3719 23.2061C43.7299 23.0629 44.0946 23 44.4335 23V31C45.7926 31 47.003 30.4772 47.9242 29.6398L42.5428 23.7202ZM44.4335 23H32.0495V31H44.4335V23ZM32.0495 23C32.3424 23 32.6837 23.0506 33.0374 23.1866C33.3917 23.3229 33.6837 23.5162 33.9082 23.7202L28.5268 29.6398C29.5051 30.5291 30.7444 31 32.0495 31V23ZM34.1773 23.9893C34.3813 24.2138 34.5746 24.5058 34.7109 24.8601C34.8469 25.2138 34.8975 25.5551 34.8975 25.848H26.8975C26.8975 27.1531 27.3684 28.3924 28.2577 29.3707L34.1773 23.9893ZM34.8975 25.848V5.752H26.8975V25.848H34.8975ZM34.8975 5.752C34.8975 6.04287 34.8475 6.40739 34.6914 6.79756C34.5335 7.19241 34.3026 7.52373 34.0459 7.78043L28.3891 2.12357C27.3766 3.13609 26.8975 4.44255 26.8975 5.752H34.8975ZM34.0459 7.78042C33.8363 7.99008 33.5421 8.21026 33.1601 8.37187C32.7752 8.5347 32.3909 8.6 32.0495 8.6V0.599998C30.6255 0.599998 29.3428 1.16983 28.3891 2.12358L34.0459 7.78042ZM32.0495 8.6H44.1775V0.599998H32.0495V8.6ZM44.1775 8.6C43.7891 8.6 43.23 8.50479 42.6655 8.15199C42.1048 7.80156 41.7847 7.35075 41.6238 7.02885L48.7792 3.45115C48.4049 2.70259 47.8075 1.93177 46.9055 1.36801C45.9997 0.801869 45.0353 0.599998 44.1775 0.599998V8.6ZM41.6238 7.02885L43.9918 11.7649L51.1472 8.18715L48.7792 3.45115L41.6238 7.02885ZM44.0965 11.9606C43.7976 11.4375 43.6975 10.9094 43.6975 10.488H51.6975C51.6975 9.68264 51.512 8.81316 51.0425 7.99143L44.0965 11.9606ZM43.6975 10.488V13.272H51.6975V10.488H43.6975ZM43.6975 13.272C43.6975 12.9306 43.7628 12.5463 43.9256 12.1614C44.0872 11.7795 44.3074 11.4852 44.5171 11.2756L50.1739 16.9324C51.1277 15.9787 51.6975 14.696 51.6975 13.272H43.6975ZM44.5171 11.2756C44.7738 11.0189 45.1051 10.788 45.4999 10.6301C45.8901 10.474 46.2546 10.424 46.5455 10.424V18.424C47.855 18.424 49.1614 17.9449 50.1739 16.9324L44.5171 11.2756ZM46.5455 10.424H43.2495V18.424H46.5455V10.424ZM43.2495 10.424C43.5424 10.424 43.8837 10.4746 44.2374 10.6106C44.5917 10.7469 44.8837 10.9402 45.1082 11.1442L39.7268 17.0638C40.7051 17.9531 41.9444 18.424 43.2495 18.424V10.424ZM45.3773 11.4133C45.5813 11.6378 45.7746 11.9298 45.9109 12.2841C46.0469 12.6378 46.0975 12.9791 46.0975 13.272H38.0975C38.0975 14.5771 38.5684 15.8164 39.4577 16.7947L45.3773 11.4133ZM46.0975 13.272V11.448H38.0975V13.272H46.0975ZM46.0975 11.448C46.0975 10.5335 45.8065 9.82576 45.6112 9.43514L38.4558 13.0129C38.3458 12.7929 38.0975 12.2345 38.0975 11.448H46.0975ZM45.4886 9.20851L45.0406 8.44051L38.1304 12.4715L38.5784 13.2395L45.4886 9.20851ZM45.1632 8.66714C44.8453 8.0314 44.3204 7.35371 43.5139 6.85737C42.7088 6.36192 41.8714 6.2 41.1695 6.2V14.2C40.6596 14.2 39.9875 14.0807 39.3211 13.6706C38.6532 13.2596 38.2403 12.7099 38.0078 12.2449L45.1632 8.66714ZM41.1695 6.2H34.1615V14.2H41.1695V6.2ZM34.1615 6.2C32.7274 6.2 31.5038 6.87904 30.718 7.86122L36.965 12.8588C36.6986 13.1918 36.309 13.5504 35.7744 13.8177C35.2321 14.0888 34.6719 14.2 34.1615 14.2V6.2ZM31.0131 7.53157C30.1286 8.41609 29.7135 9.56255 29.7135 10.68H37.7135C37.7135 11.0669 37.6475 11.5194 37.4594 11.9896C37.2695 12.4644 36.9906 12.8677 36.6699 13.1884L31.0131 7.53157ZM29.7135 10.68V12.568H37.7135V10.68H29.7135ZM29.7135 12.568C29.7135 13.8117 30.2269 14.7729 30.718 15.3868L36.965 10.3892C37.2854 10.7898 37.7135 11.5376 37.7135 12.568H29.7135ZM31.0131 15.7164C31.8976 16.6009 33.0441 17.016 34.1615 17.016V9.016C34.5484 9.016 35.0009 9.08202 35.4711 9.27009C35.9459 9.46003 36.3492 9.73888 36.6699 10.0596L31.0131 15.7164ZM34.1615 17.016H36.0495V9.016H34.1615V17.016ZM36.0495 17.016C35.6626 17.016 35.2101 16.95 34.7399 16.7619C34.2651 16.572 33.8618 16.2931 33.5411 15.9724L39.1979 10.3156C38.3134 9.43105 37.1669 9.016 36.0495 9.016V17.016ZM33.5411 15.9724C33.2204 15.6517 32.9415 15.2484 32.7516 14.7736C32.5635 14.3034 32.4975 13.8509 32.4975 13.464H40.4975C40.4975 12.3466 40.0824 11.2001 39.1979 10.3156L33.5411 15.9724ZM32.4975 13.464V23.736H40.4975V13.464H32.4975ZM32.4975 23.736C32.4975 24.8357 32.8902 25.822 33.502 26.5868L39.749 21.5892C40.1901 22.1407 40.4975 22.8923 40.4975 23.736H32.4975ZM33.7971 26.9164C34.6816 27.8009 35.8281 28.216 36.9455 28.216V20.216C37.3324 20.216 37.7849 20.282 38.2551 20.4701C38.7299 20.66 39.1332 20.9389 39.4539 21.2596L33.7971 26.9164ZM36.9455 28.216H41.6495V20.216H36.9455V28.216ZM41.6495 28.216C42.767 28.216 43.9134 27.8009 44.7979 26.9164L39.1411 21.2596C39.4618 20.9389 39.8651 20.66 40.3399 20.4701C40.8101 20.282 41.2626 20.216 41.6495 20.216V28.216ZM45.093 26.5868C45.7048 25.822 46.0975 24.8357 46.0975 23.736H38.0975C38.0975 22.8923 38.4049 22.1407 38.846 21.5892L45.093 26.5868ZM46.0975 23.736V19.064H38.0975V23.736H46.0975ZM49.6238 4.952L52.4522 7.78043L52.4522 7.78042L49.6238 4.952ZM52.4078 5.24L48.83 7.02885L48.83 7.02885L52.4078 5.24ZM54.7758 9.976L51.198 11.7649L51.2477 11.8642L51.3028 11.9606L54.7758 9.976ZM54.5518 26.68L51.7233 23.8516L51.7233 23.8516L54.5518 26.68ZM49.6238 26.68L46.664 29.3707L46.7921 29.5116L46.9331 29.6398L49.6238 26.68ZM53.3038 5.752C53.3038 6.04287 53.2537 6.40739 53.0977 6.79756C52.9397 7.19241 52.7089 7.52373 52.4522 7.78043L46.7953 2.12357C45.7828 3.13609 45.3038 4.44255 45.3038 5.752H53.3038ZM52.4522 7.78042C52.2425 7.99008 51.9483 8.21026 51.5663 8.37187C51.1814 8.5347 50.7972 8.6 50.4557 8.6V0.599998C49.0317 0.599998 47.7491 1.16983 46.7953 2.12358L52.4522 7.78042ZM50.4557 8.6H51.3838V0.599998H50.4557V8.6ZM51.3838 8.6C50.9953 8.6 50.4362 8.5048 49.8718 8.15199C49.3111 7.80156 48.991 7.35074 48.83 7.02885L55.9855 3.45115C55.6112 2.70259 55.0138 1.93177 54.1117 1.36801C53.2059 0.801869 52.2415 0.599998 51.3838 0.599998V8.6ZM48.83 7.02885L51.198 11.7649L58.3535 8.18715L55.9855 3.45115L48.83 7.02885ZM51.3028 11.9606C51.0039 11.4375 50.9038 10.9094 50.9038 10.488H58.9038C58.9038 9.68264 58.7183 8.81316 58.2487 7.99143L51.3028 11.9606ZM50.9038 10.488V25.848H58.9038V10.488H50.9038ZM50.9038 25.848C50.9038 25.5066 50.9691 25.1223 51.1319 24.7374C51.2935 24.3555 51.5137 24.0612 51.7233 23.8516L57.3802 29.5084C58.3339 28.5547 58.9038 27.272 58.9038 25.848H50.9038ZM51.7233 23.8516C51.98 23.5949 52.3113 23.364 52.7062 23.2061C53.0964 23.05 53.4609 23 53.7518 23V31C55.0612 31 56.3677 30.5209 57.3802 29.5084L51.7233 23.8516ZM53.7518 23H50.4557V31H53.7518V23ZM50.4557 23C50.7487 23 51.0899 23.0506 51.4437 23.1866C51.798 23.3229 52.09 23.5162 52.3144 23.7202L46.9331 29.6398C47.9113 30.5291 49.1506 31 50.4557 31V23ZM52.5835 23.9893C52.7876 24.2138 52.9809 24.5058 53.1171 24.8601C53.2532 25.2138 53.3038 25.5551 53.3038 25.848H45.3038C45.3038 27.1531 45.7747 28.3924 46.664 29.3707L52.5835 23.9893ZM53.3038 25.848V5.752H45.3038V25.848H53.3038ZM56.9988 4.984L59.8272 7.81243L59.8272 7.81242L56.9988 4.984ZM70.9828 5.24L74.5605 3.45115L74.5418 3.41388L74.5224 3.37702L70.9828 5.24ZM73.3507 9.976L69.773 11.7649L69.773 11.7649L73.3507 9.976ZM73.3188 13.848L76.7107 15.968L76.7107 15.968L73.3188 13.848ZM72.9028 14.264L70.7828 10.872L70.7827 10.872L72.9028 14.264ZM68.1988 14.104L65.239 16.7947L65.3671 16.9356L65.5081 17.0638L68.1988 14.104ZM67.8148 11.224L71.3925 9.43514L71.3348 9.31985L71.2699 9.20851L67.8148 11.224ZM67.3668 10.456L63.8938 12.4406L63.9026 12.4561L63.9116 12.4715L67.3668 10.456ZM59.6228 10.36L62.4512 13.1884L62.4512 13.1884L59.6228 10.36ZM59.6228 12.888L62.4512 10.0596L62.4512 10.0596L59.6228 12.888ZM62.1508 13.144L64.9792 10.3156L64.9792 10.3156L62.1508 13.144ZM62.4068 14.296L59.2833 16.7948L59.4217 16.9678L59.5783 17.1244L62.4068 14.296ZM66.3428 14.552L69.1712 11.7236L69.1712 11.7236L66.3428 14.552ZM66.5988 15.672L63.7703 18.5004L63.927 18.6571L64.1 18.7955L66.5988 15.672ZM73.1268 16.152L70.167 18.8427L70.2951 18.9836L70.4361 19.1118L73.1268 16.152ZM73.1268 26.68L75.9552 29.5084L75.9552 29.5084L73.1268 26.68ZM59.1428 26.68L56.2931 29.4871L56.3705 29.5656L56.4521 29.6398L59.1428 26.68ZM57.0308 24.536L59.8804 21.7289L59.803 21.6504L59.7214 21.5762L57.0308 24.536ZM56.9988 20.376L54.1703 17.5476L54.1703 17.5476L56.9988 20.376ZM61.9268 20.376L58.967 23.0667L59.0951 23.2076L59.2361 23.3358L61.9268 20.376ZM62.4068 24.088L59.2833 26.5868L59.4217 26.7598L59.5783 26.9164L62.4068 24.088ZM67.7508 24.088L70.5792 26.9164L70.7358 26.7598L70.8742 26.5868L67.7508 24.088ZM67.7508 20.152L70.5792 17.3236L70.5792 17.3236L67.7508 20.152ZM63.8148 19.896L60.6913 22.3948L60.8297 22.5678L60.9863 22.7244L63.8148 19.896ZM63.5268 17.368L60.4033 19.8668L60.6809 20.2138L61.028 20.4915L63.5268 17.368ZM56.9988 16.888L54.039 19.5787L54.1671 19.7196L54.3081 19.8478L56.9988 16.888ZM60.6788 5.752C60.6788 6.08974 60.616 6.47848 60.4511 6.87446C60.2864 7.26964 60.0573 7.58233 59.8272 7.81243L54.1703 2.15557C53.2154 3.11049 52.6788 4.38042 52.6788 5.752H60.6788ZM59.8272 7.81242C59.6175 8.02208 59.3233 8.24225 58.9413 8.40387C58.5564 8.5667 58.1722 8.632 57.8307 8.632V0.631998C56.4067 0.631998 55.1241 1.20183 54.1703 2.15558L59.8272 7.81242ZM57.8307 8.632H69.9588V0.631998H57.8307V8.632ZM69.9588 8.632C69.6068 8.632 69.0764 8.55104 68.5246 8.22342C67.9674 7.89259 67.6265 7.45153 67.4431 7.10298L74.5224 3.37702C74.1256 2.62314 73.5074 1.87807 72.6089 1.34458C71.7158 0.814286 70.7801 0.631998 69.9588 0.631998V8.632ZM67.405 7.02885L69.773 11.7649L76.9285 8.18715L74.5605 3.45115L67.405 7.02885ZM69.773 11.7649C69.6138 11.4464 69.4788 11.0084 69.4788 10.488H77.4788C77.4788 9.62627 77.2584 8.84696 76.9285 8.18713L69.773 11.7649ZM69.4788 10.488V13.272H77.4788V10.488H69.4788ZM69.4788 13.272C69.4788 12.7827 69.6119 12.2318 69.9268 11.728L76.7107 15.968C77.2389 15.1229 77.4788 14.188 77.4788 13.272H69.4788ZM69.9268 11.728C70.142 11.3836 70.4383 11.0873 70.7828 10.872L75.0227 17.656C75.7085 17.2274 76.2822 16.6537 76.7107 15.968L69.9268 11.728ZM70.7827 10.872C71.2865 10.5571 71.8374 10.424 72.3268 10.424V18.424C73.2427 18.424 74.1776 18.1842 75.0228 17.656L70.7827 10.872ZM72.3268 10.424H69.0308V18.424H72.3268V10.424ZM69.0308 10.424C69.3237 10.424 69.6649 10.4746 70.0187 10.6106C70.373 10.7469 70.665 10.9402 70.8894 11.1442L65.5081 17.0638C66.4863 17.9531 67.7256 18.424 69.0308 18.424V10.424ZM71.1585 11.4133C71.3626 11.6378 71.5559 11.9298 71.6921 12.2841C71.8282 12.6378 71.8788 12.9791 71.8788 13.272H63.8788C63.8788 14.5771 64.3497 15.8164 65.239 16.7947L71.1585 11.4133ZM71.8788 13.272V11.448H63.8788V13.272H71.8788ZM71.8788 11.448C71.8788 10.5335 71.5878 9.82576 71.3925 9.43514L64.237 13.0129C64.1271 12.7929 63.8788 12.2345 63.8788 11.448H71.8788ZM71.2699 9.20851L70.8219 8.44051L63.9116 12.4715L64.3596 13.2395L71.2699 9.20851ZM70.8397 8.47145C69.9474 6.90983 68.3762 6.232 66.9508 6.232V14.232C66.5284 14.232 65.9304 14.1481 65.3023 13.8099C64.6525 13.4599 64.187 12.9537 63.8938 12.4406L70.8397 8.47145ZM66.9508 6.232H59.9427V14.232H66.9508V6.232ZM59.9427 6.232C58.8253 6.232 57.6788 6.64706 56.7943 7.53158L62.4512 13.1884C62.1305 13.5091 61.7272 13.788 61.2523 13.9779C60.7821 14.166 60.3296 14.232 59.9427 14.232V6.232ZM56.7943 7.53157C55.9098 8.41609 55.4948 9.56255 55.4948 10.68H63.4948C63.4948 11.0669 63.4287 11.5194 63.2407 11.9896C63.0507 12.4644 62.7719 12.8677 62.4512 13.1884L56.7943 7.53157ZM55.4948 10.68V12.568H63.4948V10.68H55.4948ZM55.4948 12.568C55.4948 13.6854 55.9098 14.8319 56.7943 15.7164L62.4512 10.0596C62.7719 10.3803 63.0507 10.7836 63.2407 11.2584C63.4287 11.7286 63.4948 12.1811 63.4948 12.568H55.4948ZM56.7943 15.7164C57.6788 16.6009 58.8253 17.016 59.9427 17.016V9.016C60.3296 9.016 60.7821 9.08202 61.2523 9.27009C61.7272 9.46003 62.1305 9.73888 62.4512 10.0596L56.7943 15.7164ZM59.9427 17.016H61.8308V9.016H59.9427V17.016ZM61.8308 17.016C61.4439 17.016 60.9914 16.95 60.5212 16.7619C60.0463 16.572 59.643 16.2931 59.3223 15.9724L64.9792 10.3156C64.0947 9.43105 62.9482 9.016 61.8308 9.016V17.016ZM59.3223 15.9724C59.0016 15.6517 58.7228 15.2484 58.5328 14.7736C58.3448 14.3034 58.2788 13.8509 58.2788 13.464H66.2788C66.2788 12.3466 65.8637 11.2001 64.9792 10.3156L59.3223 15.9724ZM58.2788 13.464V13.944H66.2788V13.464H58.2788ZM58.2788 13.944C58.2788 15.0437 58.6714 16.03 59.2833 16.7948L65.5302 11.7972C65.9714 12.3487 66.2788 13.1003 66.2788 13.944H58.2788ZM59.5783 17.1244C60.4628 18.0089 61.6093 18.424 62.7268 18.424V10.424C63.1136 10.424 63.5661 10.49 64.0363 10.6781C64.5112 10.868 64.9145 11.1469 65.2352 11.4676L59.5783 17.1244ZM62.7268 18.424H66.0228V10.424H62.7268V18.424ZM66.0228 18.424C65.6359 18.424 65.1834 18.358 64.7132 18.1699C64.2384 17.98 63.835 17.7011 63.5143 17.3804L69.1712 11.7236C68.2867 10.8391 67.1402 10.424 66.0228 10.424V18.424ZM63.5143 17.3804C63.1936 17.0597 62.9148 16.6564 62.7248 16.1816C62.5368 15.7114 62.4708 15.2589 62.4708 14.872H70.4708C70.4708 13.7546 70.0557 12.6081 69.1712 11.7236L63.5143 17.3804ZM62.4708 14.872V15.352H70.4708V14.872H62.4708ZM62.4708 15.352C62.4708 16.4694 62.8858 17.6159 63.7703 18.5004L69.4272 12.8436C69.7479 13.1643 70.0267 13.5676 70.2167 14.0424C70.4047 14.5126 70.4708 14.9651 70.4708 15.352H62.4708ZM64.1 18.7955C64.8648 19.4073 65.8511 19.8 66.9508 19.8V11.8C67.7944 11.8 68.5461 12.1074 69.0975 12.5485L64.1 18.7955ZM66.9508 19.8H72.3268V11.8H66.9508V19.8ZM72.3268 19.8C71.9871 19.8 71.5782 19.7351 71.1558 19.5493C70.7326 19.363 70.4033 19.1026 70.167 18.8427L76.0865 13.4613C75.1073 12.3842 73.7621 11.8 72.3268 11.8V19.8ZM70.4361 19.1118C70.1761 18.8754 69.9157 18.5462 69.7295 18.123C69.5436 17.7006 69.4788 17.2917 69.4788 16.952H77.4788C77.4788 15.5166 76.8946 14.1714 75.8174 13.1922L70.4361 19.1118ZM69.4788 16.952V25.848H77.4788V16.952H69.4788ZM69.4788 25.848C69.4788 25.5066 69.5441 25.1223 69.7069 24.7374C69.8685 24.3555 70.0887 24.0612 70.2983 23.8516L75.9552 29.5084C76.9089 28.5547 77.4788 27.272 77.4788 25.848H69.4788ZM70.2983 23.8516C70.555 23.5949 70.8863 23.364 71.2812 23.2061C71.6714 23.05 72.0359 23 72.3268 23V31C73.6362 31 74.9427 30.5209 75.9552 29.5084L70.2983 23.8516ZM72.3268 23H59.9427V31H72.3268V23ZM59.9427 23C60.2816 23 60.6464 23.0629 61.0043 23.2061C61.3584 23.3477 61.6341 23.539 61.8334 23.7202L56.4521 29.6398C57.3732 30.4772 58.5837 31 59.9427 31V23ZM61.9924 23.8729L59.8804 21.7289L54.1811 27.3431L56.2931 29.4871L61.9924 23.8729ZM59.7214 21.5762C59.9814 21.8126 60.2418 22.1418 60.428 22.565C60.6139 22.9874 60.6788 23.3963 60.6788 23.736H52.6788C52.6788 25.1714 53.263 26.5166 54.3401 27.4958L59.7214 21.5762ZM60.6788 23.736V21.176H52.6788V23.736H60.6788ZM60.6788 21.176C60.6788 21.4669 60.6287 21.8314 60.4727 22.2216C60.3147 22.6164 60.0839 22.9477 59.8272 23.2044L54.1703 17.5476C53.1578 18.5601 52.6788 19.8666 52.6788 21.176H60.6788ZM59.8272 23.2044C59.6175 23.4141 59.3233 23.6343 58.9413 23.7959C58.5564 23.9587 58.1722 24.024 57.8307 24.024V16.024C56.4067 16.024 55.1241 16.5938 54.1703 17.5476L59.8272 23.2044ZM57.8307 24.024H61.1268V16.024H57.8307V24.024ZM61.1268 24.024C60.7871 24.024 60.3782 23.9591 59.9558 23.7733C59.5326 23.587 59.2033 23.3266 58.967 23.0667L64.8865 17.6853C63.9073 16.6082 62.5621 16.024 61.1268 16.024V24.024ZM59.2361 23.3358C58.9761 23.0994 58.7157 22.7702 58.5295 22.347C58.3436 21.9246 58.2788 21.5157 58.2788 21.176H66.2788C66.2788 19.7406 65.6945 18.3954 64.6174 17.4162L59.2361 23.3358ZM58.2788 21.176V23.736H66.2788V21.176H58.2788ZM58.2788 23.736C58.2788 24.8357 58.6714 25.822 59.2833 26.5868L65.5302 21.5892C65.9714 22.1407 66.2788 22.8923 66.2788 23.736H58.2788ZM59.5783 26.9164C60.4628 27.8009 61.6093 28.216 62.7268 28.216V20.216C63.1136 20.216 63.5661 20.282 64.0363 20.4701C64.5112 20.66 64.9145 20.9389 65.2352 21.2596L59.5783 26.9164ZM62.7268 28.216H67.4308V20.216H62.7268V28.216ZM67.4308 28.216C68.5482 28.216 69.6947 27.8009 70.5792 26.9164L64.9223 21.2596C65.243 20.9389 65.6463 20.66 66.1212 20.4701C66.5914 20.282 67.0439 20.216 67.4308 20.216V28.216ZM70.8742 26.5868C71.4861 25.822 71.8788 24.8357 71.8788 23.736H63.8788C63.8788 22.8923 64.1861 22.1407 64.6273 21.5892L70.8742 26.5868ZM71.8788 23.736V20.472H63.8788V23.736H71.8788ZM71.8788 20.472C71.8788 19.3546 71.4637 18.2081 70.5792 17.3236L64.9223 22.9804C64.6016 22.6597 64.3228 22.2564 64.1328 21.7816C63.9448 21.3114 63.8788 20.8589 63.8788 20.472H71.8788ZM70.5792 17.3236C69.6947 16.4391 68.5482 16.024 67.4308 16.024V24.024C67.0439 24.024 66.5914 23.958 66.1212 23.7699C65.6463 23.58 65.243 23.3011 64.9223 22.9804L70.5792 17.3236ZM67.4308 16.024H64.1348V24.024H67.4308V16.024ZM64.1348 16.024C64.5216 16.024 64.9741 16.09 65.4443 16.2781C65.9192 16.468 66.3225 16.7469 66.6432 17.0676L60.9863 22.7244C61.8708 23.6089 63.0173 24.024 64.1348 24.024V16.024ZM66.9382 17.3972C67.3794 17.9487 67.6868 18.7003 67.6868 19.544H59.6868C59.6868 20.6437 60.0794 21.63 60.6913 22.3948L66.9382 17.3972ZM67.6868 19.544V17.656H59.6868V19.544H67.6868ZM67.6868 17.656C67.6868 16.0063 66.7915 14.8573 66.0255 14.2445L61.028 20.4915C60.7708 20.2858 60.4295 19.9495 60.1501 19.4466C59.8568 18.9186 59.6868 18.3031 59.6868 17.656H67.6868ZM66.6502 14.8692C65.8645 13.887 64.6408 13.208 63.2068 13.208V21.208C62.6963 21.208 62.1362 21.0968 61.5939 20.8257C61.0593 20.5584 60.6697 20.1998 60.4033 19.8668L66.6502 14.8692ZM63.2068 13.208H57.8307V21.208H63.2068V13.208ZM57.8307 13.208C58.1237 13.208 58.4649 13.2586 58.8187 13.3946C59.173 13.5309 59.465 13.7242 59.6894 13.9282L54.3081 19.8478C55.2863 20.7371 56.5256 21.208 57.8307 21.208V13.208ZM59.9585 14.1973C60.1626 14.4218 60.3559 14.7138 60.4921 15.0681C60.6282 15.4218 60.6788 15.7631 60.6788 16.056H52.6788C52.6788 17.3611 53.1497 18.6004 54.039 19.5787L59.9585 14.1973ZM60.6788 16.056V5.752H52.6788V16.056H60.6788ZM86.3773 11.224L82.9221 13.2395L82.9825 13.343L83.049 13.4428L86.3773 11.224ZM85.9293 10.456L82.3515 12.2449L82.4092 12.3601L82.4741 12.4715L85.9293 10.456ZM78.1853 10.36L81.0137 13.1884L81.1703 13.0318L81.3087 12.8588L78.1853 10.36ZM78.1853 12.888L75.0618 15.3868L75.2002 15.5598L75.3568 15.7164L78.1853 12.888ZM80.7133 13.144L83.5417 10.3156L83.5417 10.3156L80.7133 13.144ZM80.9693 18.488L77.8458 20.9868L77.9842 21.1598L78.1408 21.3164L80.9693 18.488ZM85.1613 19.896L82.0378 22.3948L82.3154 22.7418L82.6625 23.0195L85.1613 19.896ZM86.3133 19.896L89.1417 22.7244L89.2983 22.5678L89.4367 22.3948L86.3133 19.896ZM91.6893 26.68L94.5177 29.5084L94.5177 29.5084L91.6893 26.68ZM86.7613 26.68L83.8015 29.3707L83.9296 29.5116L84.0706 29.6398L86.7613 26.68ZM82.3773 24.088L79.2538 26.5868L79.3922 26.7598L79.5488 26.9164L82.3773 24.088ZM82.0893 21.56L78.9658 24.0588L79.2434 24.4058L79.5905 24.6835L82.0893 21.56ZM80.9693 21.56L83.7977 24.3884L83.9543 24.2318L84.0927 24.0588L80.9693 21.56ZM80.4893 26.68L77.6608 23.8516L77.6608 23.8516L80.4893 26.68ZM75.5613 26.68L72.6015 29.3707L72.7296 29.5116L72.8706 29.6398L75.5613 26.68ZM75.5613 4.952L78.3897 7.78043L78.3897 7.78042L75.5613 4.952ZM89.5453 5.24L93.123 3.45115L93.123 3.45115L89.5453 5.24ZM91.9132 9.976L88.3355 11.7649L88.3852 11.8642L88.4403 11.9606L91.9132 9.976ZM90.4413 11.448C90.4413 10.6627 90.2334 9.79718 89.7055 9.00521L83.049 13.4428C82.6064 12.7788 82.4413 12.0626 82.4413 11.448H90.4413ZM89.8324 9.20851L89.3844 8.44051L82.4741 12.4715L82.9221 13.2395L89.8324 9.20851ZM89.507 8.66714C89.1891 8.0314 88.6642 7.35371 87.8576 6.85737C87.0525 6.36192 86.2152 6.2 85.5133 6.2V14.2C85.0033 14.2 84.3313 14.0807 83.6649 13.6706C82.997 13.2596 82.5841 12.7099 82.3515 12.2449L89.507 8.66714ZM85.5133 6.2H78.5052V14.2H85.5133V6.2ZM78.5052 6.2C77.0712 6.2 75.8475 6.87904 75.0618 7.86122L81.3087 12.8588C81.0423 13.1918 80.6527 13.5504 80.1181 13.8177C79.5758 14.0888 79.0157 14.2 78.5052 14.2V6.2ZM75.3568 7.53157C74.4723 8.41609 74.0573 9.56255 74.0573 10.68H82.0573C82.0573 11.0669 81.9912 11.5194 81.8032 11.9896C81.6132 12.4644 81.3344 12.8677 81.0137 13.1884L75.3568 7.53157ZM74.0573 10.68V12.568H82.0573V10.68H74.0573ZM74.0573 12.568C74.0573 13.8117 74.5707 14.7729 75.0618 15.3868L81.3087 10.3892C81.6292 10.7898 82.0573 11.5376 82.0573 12.568H74.0573ZM75.3568 15.7164C76.2413 16.6009 77.3878 17.016 78.5052 17.016V9.016C78.8921 9.016 79.3446 9.08202 79.8148 9.27009C80.2897 9.46003 80.693 9.73888 81.0137 10.0596L75.3568 15.7164ZM78.5052 17.016H80.3933V9.016H78.5052V17.016ZM80.3933 17.016C80.0064 17.016 79.5539 16.95 79.0837 16.7619C78.6088 16.572 78.2055 16.2931 77.8848 15.9724L83.5417 10.3156C82.6572 9.43105 81.5107 9.016 80.3933 9.016V17.016ZM77.8848 15.9724C77.5641 15.6517 77.2853 15.2484 77.0953 14.7736C76.9073 14.3034 76.8413 13.8509 76.8413 13.464H84.8413C84.8413 12.3466 84.4262 11.2001 83.5417 10.3156L77.8848 15.9724ZM76.8413 13.464V18.136H84.8413V13.464H76.8413ZM76.8413 18.136C76.8413 19.2357 77.2339 20.222 77.8458 20.9868L84.0927 15.9892C84.5339 16.5407 84.8413 17.2923 84.8413 18.136H76.8413ZM78.1408 21.3164C79.0253 22.2009 80.1718 22.616 81.2893 22.616V14.616C81.6761 14.616 82.1286 14.682 82.5988 14.8701C83.0736 15.06 83.477 15.3389 83.7977 15.6596L78.1408 21.3164ZM81.2893 22.616H84.5853V14.616H81.2893V22.616ZM84.5853 22.616C84.1984 22.616 83.7459 22.55 83.2757 22.3619C82.8008 22.172 82.3975 21.8931 82.0768 21.5724L87.7337 15.9156C86.8492 15.0311 85.7027 14.616 84.5853 14.616V22.616ZM82.0768 21.5724C81.7561 21.2517 81.4773 20.8484 81.2873 20.3736C81.0993 19.9034 81.0333 19.4509 81.0333 19.064H89.0333C89.0333 17.9466 88.6182 16.8001 87.7337 15.9156L82.0768 21.5724ZM81.0333 19.064V19.544H89.0333V19.064H81.0333ZM81.0333 19.544C81.0333 20.6437 81.4259 21.63 82.0378 22.3948L88.2847 17.3972C88.7259 17.9487 89.0333 18.7003 89.0333 19.544H81.0333ZM82.6625 23.0195C83.4273 23.6313 84.4136 24.024 85.5133 24.024V16.024C86.3569 16.024 87.1086 16.3314 87.66 16.7725L82.6625 23.0195ZM85.5133 24.024H85.9933V16.024H85.5133V24.024ZM85.9933 24.024C87.1107 24.024 88.2572 23.6089 89.1417 22.7244L83.4848 17.0676C83.8055 16.7469 84.2088 16.468 84.6837 16.2781C85.1539 16.09 85.6064 16.024 85.9933 16.024V24.024ZM89.4367 22.3948C90.0486 21.63 90.4413 20.6437 90.4413 19.544H82.4413C82.4413 18.7003 82.7486 17.9487 83.1898 17.3972L89.4367 22.3948ZM90.4413 19.544V11.448H82.4413V19.544H90.4413ZM88.0413 25.848C88.0413 25.5066 88.1066 25.1223 88.2694 24.7374C88.431 24.3555 88.6512 24.0612 88.8608 23.8516L94.5177 29.5084C95.4714 28.5547 96.0413 27.272 96.0413 25.848H88.0413ZM88.8608 23.8516C89.1175 23.5949 89.4488 23.364 89.8437 23.2061C90.2339 23.05 90.5984 23 90.8893 23V31C92.1987 31 93.5052 30.5209 94.5177 29.5084L88.8608 23.8516ZM90.8893 23H87.5933V31H90.8893V23ZM87.5933 23C87.8862 23 88.2274 23.0506 88.5812 23.1866C88.9355 23.3229 89.2275 23.5162 89.4519 23.7202L84.0706 29.6398C85.0488 30.5291 86.2881 31 87.5933 31V23ZM89.721 23.9893C89.9251 24.2138 90.1184 24.5058 90.2546 24.8601C90.3907 25.2138 90.4413 25.5551 90.4413 25.848H82.4413C82.4413 27.1531 82.9122 28.3924 83.8015 29.3707L89.721 23.9893ZM90.4413 25.848V24.664H82.4413V25.848H90.4413ZM90.4413 24.664C90.4413 23.5466 90.0262 22.4001 89.1417 21.5156L83.4848 27.1724C83.1641 26.8517 82.8853 26.4484 82.6953 25.9736C82.5073 25.5034 82.4413 25.0509 82.4413 24.664H90.4413ZM89.1417 21.5156C88.2572 20.6311 87.1107 20.216 85.9933 20.216V28.216C85.6064 28.216 85.1539 28.15 84.6837 27.9619C84.2088 27.772 83.8055 27.4931 83.4848 27.1724L89.1417 21.5156ZM85.9933 20.216H82.6973V28.216H85.9933V20.216ZM82.6973 20.216C83.0841 20.216 83.5366 20.282 84.0068 20.4701C84.4817 20.66 84.885 20.9389 85.2057 21.2596L79.5488 26.9164C80.4333 27.8009 81.5798 28.216 82.6973 28.216V20.216ZM85.5007 21.5892C85.9419 22.1407 86.2493 22.8923 86.2493 23.736H78.2493C78.2493 24.8357 78.6419 25.822 79.2538 26.5868L85.5007 21.5892ZM86.2493 23.736V21.88H78.2493V23.736H86.2493ZM86.2493 21.88C86.2493 20.4459 85.5702 19.2223 84.588 18.4365L79.5905 24.6835C79.2575 24.4171 78.8988 24.0275 78.6315 23.4929C78.3604 22.9506 78.2493 22.3904 78.2493 21.88H86.2493ZM85.2127 19.0612C84.427 18.079 83.2033 17.4 81.7693 17.4V25.4C81.2588 25.4 80.6987 25.2888 80.1564 25.0177C79.6218 24.7504 79.2322 24.3918 78.9658 24.0588L85.2127 19.0612ZM81.7693 17.4H81.2893V25.4H81.7693V17.4ZM81.2893 17.4C79.8552 17.4 78.6315 18.079 77.8458 19.0612L84.0927 24.0588C83.8263 24.3918 83.4367 24.7504 82.9021 25.0177C82.3598 25.2888 81.7997 25.4 81.2893 25.4V17.4ZM78.1408 18.7316C77.2563 19.6161 76.8413 20.7626 76.8413 21.88H84.8413C84.8413 22.2669 84.7752 22.7194 84.5872 23.1896C84.3972 23.6644 84.1184 24.0677 83.7977 24.3884L78.1408 18.7316ZM76.8413 21.88V25.848H84.8413V21.88H76.8413ZM76.8413 25.848C76.8413 25.5066 76.9066 25.1223 77.0694 24.7374C77.231 24.3555 77.4512 24.0612 77.6608 23.8516L83.3177 29.5084C84.2714 28.5547 84.8413 27.272 84.8413 25.848H76.8413ZM77.6608 23.8516C77.9175 23.5949 78.2488 23.364 78.6437 23.2061C79.0339 23.05 79.3984 23 79.6893 23V31C80.9987 31 82.3052 30.5209 83.3177 29.5084L77.6608 23.8516ZM79.6893 23H76.3932V31H79.6893V23ZM76.3932 23C76.6862 23 77.0274 23.0506 77.3812 23.1866C77.7355 23.3229 78.0275 23.5162 78.2519 23.7202L72.8706 29.6398C73.8488 30.5291 75.0881 31 76.3932 31V23ZM78.521 23.9893C78.7251 24.2138 78.9184 24.5058 79.0546 24.8601C79.1907 25.2138 79.2413 25.5551 79.2413 25.848H71.2413C71.2413 27.1531 71.7122 28.3924 72.6015 29.3707L78.521 23.9893ZM79.2413 25.848V5.752H71.2413V25.848H79.2413ZM79.2413 5.752C79.2413 6.04287 79.1912 6.40739 79.0352 6.79756C78.8772 7.19241 78.6464 7.52373 78.3897 7.78043L72.7328 2.12357C71.7203 3.13609 71.2413 4.44255 71.2413 5.752H79.2413ZM78.3897 7.78042C78.18 7.99008 77.8858 8.21026 77.5038 8.37187C77.1189 8.5347 76.7347 8.6 76.3932 8.6V0.599998C74.9692 0.599998 73.6866 1.16983 72.7328 2.12358L78.3897 7.78042ZM76.3932 8.6H88.5213V0.599998H76.3932V8.6ZM88.5213 8.6C88.1328 8.6 87.5737 8.50479 87.0093 8.15199C86.4486 7.80156 86.1285 7.35075 85.9675 7.02885L93.123 3.45115C92.7487 2.70259 92.1513 1.93177 91.2492 1.36801C90.3434 0.801869 89.379 0.599998 88.5213 0.599998V8.6ZM85.9675 7.02885L88.3355 11.7649L95.491 8.18715L93.123 3.45115L85.9675 7.02885ZM88.4403 11.9606C88.1414 11.4375 88.0413 10.9094 88.0413 10.488H96.0413C96.0413 9.68264 95.8558 8.81316 95.3862 7.99143L88.4403 11.9606ZM88.0413 10.488V25.848H96.0413V10.488H88.0413ZM94.1238 4.952L96.9522 7.78043L96.9522 7.78042L94.1238 4.952ZM108.108 5.24L111.685 3.45115L111.685 3.45115L108.108 5.24ZM110.476 9.976L106.898 11.7649L106.948 11.8642L107.003 11.9606L110.476 9.976ZM110.252 14.104L107.423 11.2756L107.423 11.2756L110.252 14.104ZM105.324 14.104L102.364 16.7947L102.492 16.9356L102.633 17.0638L105.324 14.104ZM104.94 11.224L108.517 9.43514L108.46 9.31985L108.395 9.20851L104.94 11.224ZM104.492 10.456L100.914 12.2449L100.972 12.3601L101.037 12.4715L104.492 10.456ZM96.7158 10.36L93.8873 7.53157L93.8873 7.53157L96.7158 10.36ZM96.7158 12.888L93.5923 15.3868L93.8699 15.7338L94.217 16.0115L96.7158 12.888ZM99.2758 13.144L102.104 10.3156L102.104 10.3156L99.2758 13.144ZM99.5318 14.296L96.4083 16.7948L96.5467 16.9678L96.7033 17.1244L99.5318 14.296ZM103.468 14.552L106.296 11.7236L106.296 11.7236L103.468 14.552ZM103.468 19.896L106.296 22.7244L106.453 22.5678L106.591 22.3948L103.468 19.896ZM100.94 19.896L97.8163 22.3948L97.9547 22.5678L98.1113 22.7244L100.94 19.896ZM100.652 17.336L97.8233 20.1644L97.98 20.3211L98.153 20.4595L100.652 17.336ZM99.5318 17.336L96.7033 14.5076L96.7033 14.5076L99.5318 17.336ZM99.0518 26.68L96.2233 23.8516L96.2233 23.8516L99.0518 26.68ZM94.1238 26.68L91.164 29.3707L91.2921 29.5116L91.4331 29.6398L94.1238 26.68ZM97.8038 5.752C97.8038 6.04287 97.7537 6.40739 97.5977 6.79756C97.4397 7.19241 97.2089 7.52373 96.9522 7.78043L91.2953 2.12357C90.2828 3.13609 89.8038 4.44255 89.8038 5.752H97.8038ZM96.9522 7.78042C96.7425 7.99008 96.4483 8.21026 96.0663 8.37187C95.6814 8.5347 95.2972 8.6 94.9557 8.6V0.599998C93.5317 0.599998 92.2491 1.16983 91.2953 2.12358L96.9522 7.78042ZM94.9557 8.6H107.084V0.599998H94.9557V8.6ZM107.084 8.6C106.695 8.6 106.136 8.50479 105.572 8.15199C105.011 7.80156 104.691 7.35075 104.53 7.02885L111.685 3.45115C111.311 2.70259 110.714 1.93177 109.812 1.36801C108.906 0.801869 107.942 0.599998 107.084 0.599998V8.6ZM104.53 7.02885L106.898 11.7649L114.053 8.18715L111.685 3.45115L104.53 7.02885ZM107.003 11.9606C106.704 11.4375 106.604 10.9094 106.604 10.488H114.604C114.604 9.68264 114.418 8.81316 113.949 7.99143L107.003 11.9606ZM106.604 10.488V13.272H114.604V10.488H106.604ZM106.604 13.272C106.604 12.9306 106.669 12.5463 106.832 12.1614C106.993 11.7795 107.214 11.4852 107.423 11.2756L113.08 16.9324C114.034 15.9787 114.604 14.696 114.604 13.272H106.604ZM107.423 11.2756C107.68 11.0189 108.011 10.788 108.406 10.6301C108.796 10.474 109.161 10.424 109.452 10.424V18.424C110.761 18.424 112.068 17.9449 113.08 16.9324L107.423 11.2756ZM109.452 10.424H106.156V18.424H109.452V10.424ZM106.156 10.424C106.449 10.424 106.79 10.4746 107.144 10.6106C107.498 10.7469 107.79 10.9402 108.014 11.1442L102.633 17.0638C103.611 17.9531 104.851 18.424 106.156 18.424V10.424ZM108.284 11.4133C108.488 11.6378 108.681 11.9298 108.817 12.2841C108.953 12.6378 109.004 12.9791 109.004 13.272H101.004C101.004 14.5771 101.475 15.8164 102.364 16.7947L108.284 11.4133ZM109.004 13.272V11.448H101.004V13.272H109.004ZM109.004 11.448C109.004 10.5335 108.713 9.82576 108.517 9.43514L101.362 13.0129C101.252 12.7929 101.004 12.2345 101.004 11.448H109.004ZM108.395 9.20851L107.947 8.44051L101.037 12.4715L101.485 13.2395L108.395 9.20851ZM108.069 8.66714C107.752 8.0314 107.227 7.35371 106.42 6.85737C105.615 6.36192 104.778 6.2 104.076 6.2V14.2C103.566 14.2 102.894 14.0807 102.227 13.6706C101.559 13.2596 101.147 12.7099 100.914 12.2449L108.069 8.66714ZM104.076 6.2H97.0677V14.2H104.076V6.2ZM97.0677 6.2C95.6911 6.2 94.6 6.8189 93.8873 7.53157L99.5442 13.1884C99.0448 13.6878 98.1884 14.2 97.0677 14.2V6.2ZM93.8873 7.53157C93.0028 8.41609 92.5878 9.56255 92.5878 10.68H100.588C100.588 11.0669 100.522 11.5194 100.334 11.9896C100.144 12.4644 99.8649 12.8677 99.5442 13.1884L93.8873 7.53157ZM92.5878 10.68V12.536H100.588V10.68H92.5878ZM92.5878 12.536C92.5878 13.6357 92.9804 14.622 93.5923 15.3868L99.8392 10.3892C100.28 10.9407 100.588 11.6923 100.588 12.536H92.5878ZM94.217 16.0115C94.9818 16.6233 95.9681 17.016 97.0677 17.016V9.016C97.9114 9.016 98.6631 9.32336 99.2145 9.76453L94.217 16.0115ZM97.0677 17.016H98.9558V9.016H97.0677V17.016ZM98.9558 17.016C98.5689 17.016 98.1164 16.95 97.6462 16.7619C97.1713 16.572 96.768 16.2931 96.4473 15.9724L102.104 10.3156C101.22 9.43105 100.073 9.016 98.9558 9.016V17.016ZM96.4473 15.9724C96.1266 15.6517 95.8478 15.2484 95.6578 14.7736C95.4698 14.3034 95.4038 13.8509 95.4038 13.464H103.404C103.404 12.3466 102.989 11.2001 102.104 10.3156L96.4473 15.9724ZM95.4038 13.464V13.944H103.404V13.464H95.4038ZM95.4038 13.944C95.4038 15.0437 95.7964 16.03 96.4083 16.7948L102.655 11.7972C103.096 12.3487 103.404 13.1003 103.404 13.944H95.4038ZM96.7033 17.1244C97.5878 18.0089 98.7343 18.424 99.8518 18.424V10.424C100.239 10.424 100.691 10.49 101.161 10.6781C101.636 10.868 102.039 11.1469 102.36 11.4676L96.7033 17.1244ZM99.8518 18.424H103.148V10.424H99.8518V18.424ZM103.148 18.424C102.761 18.424 102.308 18.358 101.838 18.1699C101.363 17.98 100.96 17.7011 100.639 17.3804L106.296 11.7236C105.412 10.8391 104.265 10.424 103.148 10.424V18.424ZM100.639 17.3804C100.319 17.0597 100.04 16.6564 99.8498 16.1816C99.6618 15.7114 99.5958 15.2589 99.5958 14.872H107.596C107.596 13.7546 107.181 12.6081 106.296 11.7236L100.639 17.3804ZM99.5958 14.872V19.544H107.596V14.872H99.5958ZM99.5958 19.544C99.5958 18.7003 99.9031 17.9487 100.344 17.3972L106.591 22.3948C107.203 21.63 107.596 20.6437 107.596 19.544H99.5958ZM100.639 17.0676C100.96 16.7469 101.363 16.468 101.838 16.2781C102.308 16.09 102.761 16.024 103.148 16.024V24.024C104.265 24.024 105.412 23.6089 106.296 22.7244L100.639 17.0676ZM103.148 16.024H101.26V24.024H103.148V16.024ZM101.26 16.024C101.647 16.024 102.099 16.09 102.569 16.2781C103.044 16.468 103.447 16.7469 103.768 17.0676L98.1113 22.7244C98.9958 23.6089 100.142 24.024 101.26 24.024V16.024ZM104.063 17.3972C104.504 17.9487 104.812 18.7003 104.812 19.544H96.8118C96.8118 20.6437 97.2044 21.63 97.8163 22.3948L104.063 17.3972ZM104.812 19.544V17.656H96.8118V19.544H104.812ZM104.812 17.656C104.812 16.2219 104.133 14.9983 103.151 14.2125L98.153 20.4595C97.82 20.1931 97.4613 19.8035 97.194 19.2689C96.9229 18.7266 96.8118 18.1664 96.8118 17.656H104.812ZM103.48 14.5076C102.596 13.6231 101.449 13.208 100.332 13.208V21.208C99.9449 21.208 99.4924 21.142 99.0222 20.9539C98.5473 20.764 98.144 20.4851 97.8233 20.1644L103.48 14.5076ZM100.332 13.208H99.8518V21.208H100.332V13.208ZM99.8518 13.208C98.7343 13.208 97.5878 13.6231 96.7033 14.5076L102.36 20.1644C102.039 20.4851 101.636 20.764 101.161 20.9539C100.691 21.142 100.239 21.208 99.8518 21.208V13.208ZM96.7033 14.5076C95.8188 15.3921 95.4038 16.5386 95.4038 17.656H103.404C103.404 18.0429 103.338 18.4954 103.15 18.9656C102.96 19.4404 102.681 19.8437 102.36 20.1644L96.7033 14.5076ZM95.4038 17.656V25.848H103.404V17.656H95.4038ZM95.4038 25.848C95.4038 25.5066 95.4691 25.1223 95.6319 24.7374C95.7935 24.3555 96.0137 24.0612 96.2233 23.8516L101.88 29.5084C102.834 28.5547 103.404 27.272 103.404 25.848H95.4038ZM96.2233 23.8516C96.48 23.5949 96.8113 23.364 97.2062 23.2061C97.5964 23.05 97.9609 23 98.2518 23V31C99.5612 31 100.868 30.5209 101.88 29.5084L96.2233 23.8516ZM98.2518 23H94.9557V31H98.2518V23ZM94.9557 23C95.2487 23 95.5899 23.0506 95.9437 23.1866C96.298 23.3229 96.59 23.5162 96.8144 23.7202L91.4331 29.6398C92.4113 30.5291 93.6506 31 94.9557 31V23ZM97.0835 23.9893C97.2876 24.2138 97.4809 24.5058 97.6171 24.8601C97.7532 25.2138 97.8038 25.5551 97.8038 25.848H89.8038C89.8038 27.1531 90.2747 28.3924 91.164 29.3707L97.0835 23.9893ZM97.8038 25.848V5.752H89.8038V25.848H97.8038ZM112.374 4.952L115.202 7.78043L115.202 7.78042L112.374 4.952ZM126.358 5.24L129.935 3.45115L129.935 3.45115L126.358 5.24ZM128.726 9.976L125.148 11.7649L125.198 11.8642L125.253 11.9606L128.726 9.976ZM128.502 14.104L125.673 11.2756L125.673 11.2756L128.502 14.104ZM123.574 14.104L120.614 16.7947L120.742 16.9356L120.883 17.0638L123.574 14.104ZM123.19 11.224L126.767 9.43514L126.71 9.31985L126.645 9.20851L123.19 11.224ZM122.742 10.456L119.164 12.2449L119.222 12.3601L119.287 12.4715L122.742 10.456ZM114.966 10.36L112.137 7.53157L112.137 7.53157L114.966 10.36ZM114.966 12.888L111.842 15.3868L112.12 15.7338L112.467 16.0115L114.966 12.888ZM117.526 13.144L120.354 10.3156L120.354 10.3156L117.526 13.144ZM117.782 14.296L114.658 16.7948L114.797 16.9678L114.953 17.1244L117.782 14.296ZM121.718 14.552L124.546 11.7236L124.546 11.7236L121.718 14.552ZM121.718 19.896L124.546 22.7244L124.703 22.5678L124.841 22.3948L121.718 19.896ZM119.19 19.896L116.066 22.3948L116.205 22.5678L116.361 22.7244L119.19 19.896ZM118.902 17.336L116.073 20.1644L116.23 20.3211L116.403 20.4595L118.902 17.336ZM117.782 17.336L114.953 14.5076L114.953 14.5076L117.782 17.336ZM117.782 24.088L114.658 26.5868L114.797 26.7598L114.953 26.9164L117.782 24.088ZM123.126 24.088L125.954 26.9164L126.111 26.7598L126.249 26.5868L123.126 24.088ZM123.574 20.376L120.745 17.5476L120.745 17.5476L123.574 20.376ZM128.502 20.376L125.542 23.0667L125.67 23.2076L125.811 23.3358L128.502 20.376ZM128.502 26.68L131.33 29.5084L131.33 29.5084L128.502 26.68ZM112.374 26.68L109.414 29.3707L109.542 29.5116L109.683 29.6398L112.374 26.68ZM116.054 5.752C116.054 6.04287 116.004 6.40739 115.848 6.79756C115.69 7.19241 115.459 7.52373 115.202 7.78043L109.545 2.12357C108.533 3.13609 108.054 4.44255 108.054 5.752H116.054ZM115.202 7.78042C114.993 7.99008 114.698 8.21026 114.316 8.37187C113.931 8.5347 113.547 8.6 113.206 8.6V0.599998C111.782 0.599998 110.499 1.16983 109.545 2.12358L115.202 7.78042ZM113.206 8.6H125.334V0.599998H113.206V8.6ZM125.334 8.6C124.945 8.6 124.386 8.50479 123.822 8.15199C123.261 7.80156 122.941 7.35075 122.78 7.02885L129.935 3.45115C129.561 2.70259 128.964 1.93177 128.062 1.36801C127.156 0.801869 126.192 0.599998 125.334 0.599998V8.6ZM122.78 7.02885L125.148 11.7649L132.303 8.18715L129.935 3.45115L122.78 7.02885ZM125.253 11.9606C124.954 11.4375 124.854 10.9094 124.854 10.488H132.854C132.854 9.68264 132.668 8.81316 132.199 7.99143L125.253 11.9606ZM124.854 10.488V13.272H132.854V10.488H124.854ZM124.854 13.272C124.854 12.9306 124.919 12.5463 125.082 12.1614C125.243 11.7795 125.464 11.4852 125.673 11.2756L131.33 16.9324C132.284 15.9787 132.854 14.696 132.854 13.272H124.854ZM125.673 11.2756C125.93 11.0189 126.261 10.788 126.656 10.6301C127.046 10.474 127.411 10.424 127.702 10.424V18.424C129.011 18.424 130.318 17.9449 131.33 16.9324L125.673 11.2756ZM127.702 10.424H124.406V18.424H127.702V10.424ZM124.406 10.424C124.699 10.424 125.04 10.4746 125.394 10.6106C125.748 10.7469 126.04 10.9402 126.264 11.1442L120.883 17.0638C121.861 17.9531 123.101 18.424 124.406 18.424V10.424ZM126.534 11.4133C126.738 11.6378 126.931 11.9298 127.067 12.2841C127.203 12.6378 127.254 12.9791 127.254 13.272H119.254C119.254 14.5771 119.725 15.8164 120.614 16.7947L126.534 11.4133ZM127.254 13.272V11.448H119.254V13.272H127.254ZM127.254 11.448C127.254 10.5335 126.963 9.82576 126.767 9.43514L119.612 13.0129C119.502 12.7929 119.254 12.2345 119.254 11.448H127.254ZM126.645 9.20851L126.197 8.44051L119.287 12.4715L119.735 13.2395L126.645 9.20851ZM126.319 8.66714C126.002 8.0314 125.477 7.35371 124.67 6.85737C123.865 6.36192 123.028 6.2 122.326 6.2V14.2C121.816 14.2 121.144 14.0807 120.477 13.6706C119.809 13.2596 119.397 12.7099 119.164 12.2449L126.319 8.66714ZM122.326 6.2H115.318V14.2H122.326V6.2ZM115.318 6.2C113.941 6.2 112.85 6.8189 112.137 7.53157L117.794 13.1884C117.295 13.6878 116.438 14.2 115.318 14.2V6.2ZM112.137 7.53157C111.253 8.41609 110.838 9.56255 110.838 10.68H118.838C118.838 11.0669 118.772 11.5194 118.584 11.9896C118.394 12.4644 118.115 12.8677 117.794 13.1884L112.137 7.53157ZM110.838 10.68V12.536H118.838V10.68H110.838ZM110.838 12.536C110.838 13.6357 111.23 14.622 111.842 15.3868L118.089 10.3892C118.53 10.9407 118.838 11.6923 118.838 12.536H110.838ZM112.467 16.0115C113.232 16.6233 114.218 17.016 115.318 17.016V9.016C116.161 9.016 116.913 9.32336 117.465 9.76453L112.467 16.0115ZM115.318 17.016H117.206V9.016H115.318V17.016ZM117.206 17.016C116.819 17.016 116.366 16.95 115.896 16.7619C115.421 16.572 115.018 16.2931 114.697 15.9724L120.354 10.3156C119.47 9.43105 118.323 9.016 117.206 9.016V17.016ZM114.697 15.9724C114.377 15.6517 114.098 15.2484 113.908 14.7736C113.72 14.3034 113.654 13.8509 113.654 13.464H121.654C121.654 12.3466 121.239 11.2001 120.354 10.3156L114.697 15.9724ZM113.654 13.464V13.944H121.654V13.464H113.654ZM113.654 13.944C113.654 15.0437 114.046 16.03 114.658 16.7948L120.905 11.7972C121.346 12.3487 121.654 13.1003 121.654 13.944H113.654ZM114.953 17.1244C115.838 18.0089 116.984 18.424 118.102 18.424V10.424C118.489 10.424 118.941 10.49 119.411 10.6781C119.886 10.868 120.289 11.1469 120.61 11.4676L114.953 17.1244ZM118.102 18.424H121.398V10.424H118.102V18.424ZM121.398 18.424C121.011 18.424 120.558 18.358 120.088 18.1699C119.613 17.98 119.21 17.7011 118.889 17.3804L124.546 11.7236C123.662 10.8391 122.515 10.424 121.398 10.424V18.424ZM118.889 17.3804C118.569 17.0597 118.29 16.6564 118.1 16.1816C117.912 15.7114 117.846 15.2589 117.846 14.872H125.846C125.846 13.7546 125.431 12.6081 124.546 11.7236L118.889 17.3804ZM117.846 14.872V19.544H125.846V14.872H117.846ZM117.846 19.544C117.846 18.7003 118.153 17.9487 118.594 17.3972L124.841 22.3948C125.453 21.63 125.846 20.6437 125.846 19.544H117.846ZM118.889 17.0676C119.21 16.7469 119.613 16.468 120.088 16.2781C120.558 16.09 121.011 16.024 121.398 16.024V24.024C122.515 24.024 123.662 23.6089 124.546 22.7244L118.889 17.0676ZM121.398 16.024H119.51V24.024H121.398V16.024ZM119.51 16.024C119.897 16.024 120.349 16.09 120.819 16.2781C121.294 16.468 121.697 16.7469 122.018 17.0676L116.361 22.7244C117.246 23.6089 118.392 24.024 119.51 24.024V16.024ZM122.313 17.3972C122.754 17.9487 123.062 18.7003 123.062 19.544H115.062C115.062 20.6437 115.454 21.63 116.066 22.3948L122.313 17.3972ZM123.062 19.544V17.656H115.062V19.544H123.062ZM123.062 17.656C123.062 16.2219 122.383 14.9983 121.401 14.2125L116.403 20.4595C116.07 20.1931 115.711 19.8035 115.444 19.2689C115.173 18.7266 115.062 18.1664 115.062 17.656H123.062ZM121.73 14.5076C120.846 13.6231 119.699 13.208 118.582 13.208V21.208C118.195 21.208 117.742 21.142 117.272 20.9539C116.797 20.764 116.394 20.4851 116.073 20.1644L121.73 14.5076ZM118.582 13.208H118.102V21.208H118.582V13.208ZM118.102 13.208C116.984 13.208 115.838 13.6231 114.953 14.5076L120.61 20.1644C120.289 20.4851 119.886 20.764 119.411 20.9539C118.941 21.142 118.489 21.208 118.102 21.208V13.208ZM114.953 14.5076C114.069 15.3921 113.654 16.5386 113.654 17.656H121.654C121.654 18.0429 121.588 18.4954 121.4 18.9656C121.21 19.4404 120.931 19.8437 120.61 20.1644L114.953 14.5076ZM113.654 17.656V23.736H121.654V17.656H113.654ZM113.654 23.736C113.654 24.8357 114.046 25.822 114.658 26.5868L120.905 21.5892C121.346 22.1407 121.654 22.8923 121.654 23.736H113.654ZM114.953 26.9164C115.838 27.8009 116.984 28.216 118.102 28.216V20.216C118.489 20.216 118.941 20.282 119.411 20.4701C119.886 20.66 120.289 20.9389 120.61 21.2596L114.953 26.9164ZM118.102 28.216H122.806V20.216H118.102V28.216ZM122.806 28.216C123.923 28.216 125.07 27.8009 125.954 26.9164L120.297 21.2596C120.618 20.9389 121.021 20.66 121.496 20.4701C121.966 20.282 122.419 20.216 122.806 20.216V28.216ZM126.249 26.5868C126.861 25.822 127.254 24.8357 127.254 23.736H119.254C119.254 22.8923 119.561 22.1407 120.002 21.5892L126.249 26.5868ZM127.254 23.736V21.144H119.254V23.736H127.254ZM127.254 21.144C127.254 21.4817 127.191 21.8705 127.026 22.2665C126.861 22.6616 126.632 22.9743 126.402 23.2044L120.745 17.5476C119.79 18.5025 119.254 19.7724 119.254 21.144H127.254ZM126.402 23.2044C126.193 23.4141 125.898 23.6343 125.516 23.7959C125.131 23.9587 124.747 24.024 124.406 24.024V16.024C122.982 16.024 121.699 16.5938 120.745 17.5476L126.402 23.2044ZM124.406 24.024H127.702V16.024H124.406V24.024ZM127.702 24.024C127.362 24.024 126.953 23.9591 126.531 23.7733C126.108 23.587 125.778 23.3266 125.542 23.0667L131.462 17.6853C130.482 16.6082 129.137 16.024 127.702 16.024V24.024ZM125.811 23.3358C125.58 23.1253 125.322 22.8153 125.129 22.3946C124.934 21.9683 124.854 21.5344 124.854 21.144H132.854C132.854 19.6421 132.203 18.3348 131.192 17.4162L125.811 23.3358ZM124.854 21.144V25.848H132.854V21.144H124.854ZM124.854 25.848C124.854 25.5066 124.919 25.1223 125.082 24.7374C125.243 24.3555 125.464 24.0612 125.673 23.8516L131.33 29.5084C132.284 28.5547 132.854 27.272 132.854 25.848H124.854ZM125.673 23.8516C125.93 23.5949 126.261 23.364 126.656 23.2061C127.046 23.05 127.411 23 127.702 23V31C129.011 31 130.318 30.5209 131.33 29.5084L125.673 23.8516ZM127.702 23H113.206V31H127.702V23ZM113.206 23C113.499 23 113.84 23.0506 114.194 23.1866C114.548 23.3229 114.84 23.5162 115.064 23.7202L109.683 29.6398C110.661 30.5291 111.901 31 113.206 31V23ZM115.334 23.9893C115.538 24.2138 115.731 24.5058 115.867 24.8601C116.003 25.2138 116.054 25.5551 116.054 25.848H108.054C108.054 27.1531 108.525 28.3924 109.414 29.3707L115.334 23.9893ZM116.054 25.848V5.752H108.054V25.848H116.054Z" fill="black" mask="url(#path-1-outside-1_22_31)"/>
</svg>
