<svg width="28" height="33" viewBox="0 0 28 33" fill="none" xmlns="http://www.w3.org/2000/svg">
<path d="M22.395 27.537L14.74 32.69C14.4442 32.891 14.0952 32.9993 13.7375 33.0011C13.3799 33.0028 13.0298 32.8981 12.732 32.7L4.892 27.526C3.38853 26.535 2.15455 25.1862 1.30075 23.6008C0.446936 22.0154 -7.28782e-06 20.2428 0 18.442L0 5.91205C0.00120245 5.11389 0.265069 4.33832 0.750873 3.70504C1.23668 3.07176 1.91741 2.61598 2.688 2.40804L9.858 0.496045C12.304 -0.153955 14.885 -0.153955 17.33 0.496045L24.5 2.40804C25.2717 2.61412 25.9537 3.06939 26.44 3.70305C26.9263 4.33672 27.1896 5.11329 27.189 5.91205V18.51C27.1912 20.2924 26.7552 22.048 25.9192 23.6222C25.0832 25.1963 23.8729 26.5408 22.395 27.537Z" fill="#E20613"/>
<path d="M19.94 11.055H7.24799C6.24799 11.055 5.43399 10.24 5.43399 9.24005C5.43399 8.24005 6.24899 7.42505 7.24799 7.42505H19.94C20.94 7.42505 21.754 8.24005 21.754 9.24005C21.754 10.25 20.949 11.055 19.94 11.055ZM13.594 14.685C13.594 13.685 12.779 12.87 11.78 12.87H7.24799C6.24799 12.87 5.43399 13.685 5.43399 14.685C5.43399 15.685 6.24899 16.5 7.24799 16.5H11.78C12.789 16.5 13.594 15.685 13.594 14.685ZM9.06299 20.13C9.06299 19.13 8.24799 18.315 7.24799 18.315C6.24799 18.315 5.43399 19.13 5.43399 20.13C5.43399 21.13 6.24899 21.945 7.24799 21.945C8.25799 21.945 9.06299 21.13 9.06299 20.13Z" fill="white"/>
</svg>
